<svg xmlns="http://www.w3.org/2000/svg" viewBox="0 0 600 600"><defs><style>.cls-1{fill:#bc0a78;}.cls-2{fill:#7f0958;opacity:0.52;}.cls-3{fill:#fff;}.cls-4{fill:#e2e2e2;}.cls-5{fill:#10aac1;}.cls-6{fill:#041e2e;}.cls-7{fill:#c6ebf0;}.cls-8{fill:#f4d34a;}.cls-9{fill:#f4a82d;}.cls-10{fill:#073b5b;}.cls-11{fill:#ef433f;}</style></defs><g id="Capa_2" data-name="Capa 2"><g id="Capa_1-2" data-name="Capa 1"><rect class="cls-1" width="600" height="600"/><polygon class="cls-2" points="0 0 0 600 600 600 0 0"/><polyline class="cls-2" points="0 600 600 0 0 0"/><path class="cls-3" d="M193.58,142.47l39.16-27.87c1.5-1.44,9.78,40.37,9.78,40.37l-43.61,10Z"/><polygon class="cls-4" points="229.23 117.1 244.88 183.11 201.78 177.03 197.69 159.77 228.2 152.5 221.17 122.84 229.23 117.1"/><path class="cls-5" d="M190.28,197.09a3.53,3.53,0,0,0,4.25,2.61l7.5-1.78a3.52,3.52,0,0,0,2.61-4.24l-.27-1.14a3.52,3.52,0,0,0-4.24-2.62l-7.5,1.77a3.53,3.53,0,0,0-2.62,4.25Z"/><polygon class="cls-6" points="166.72 155.07 165.29 149.18 193.58 142.47 194.98 148.36 194.99 148.39 194.99 148.41 196.3 153.92 196.3 153.94 197.69 159.77 169.39 166.48 168.03 160.63 166.72 155.07"/><polygon points="170.81 172.34 169.38 166.45 197.68 159.74 199.08 165.63 199.08 165.66 199.08 165.68 200.39 171.19 200.4 171.21 201.78 177.03 173.49 183.76 172.13 177.89 170.81 172.34"/><path class="cls-5" d="M184.69,219.34a3.54,3.54,0,0,0,4.25,2.62l16.19-3.84a3.54,3.54,0,0,0,2.62-4.25l-.27-1.14a3.52,3.52,0,0,0-4.24-2.62L187,214a3.54,3.54,0,0,0-2.62,4.25Z"/><path d="M231.27,112.51l2.23-.53a3,3,0,0,1,3.67,2.26l8.11,34.21h0l8.13,34.25a3.07,3.07,0,0,1-2.27,3.67l-2.22.52a3.05,3.05,0,0,1-3.67-2.26l-8.12-34.22L229,116.17A3,3,0,0,1,231.27,112.51Z"/><path class="cls-3" d="M179.6,182.3l16.1-3.82,6.08-1.45v0h0a6.24,6.24,0,0,0-4.63,7.51l6.06,25.56-16.09,3.82L181,188.38a6.24,6.24,0,0,0-7.51-4.64h0Z"/><path class="cls-5" d="M165.94,151.78l7.15,30.15a13.08,13.08,0,0,1-6,0l-6.52-27.49A13.2,13.2,0,0,1,165.94,151.78Z"/><path class="cls-3" d="M161.28,157.45l5.1,21.51a10.4,10.4,0,0,1-7.81-7.71l-.8-3.37A10.4,10.4,0,0,1,161.28,157.45Z"/><path class="cls-5" d="M242.83,138.11l5.11,21.5a10.38,10.38,0,0,0,3.51-10.39l-.81-3.36A10.35,10.35,0,0,0,242.83,138.11Z"/><rect class="cls-3" x="73.46" y="166.98" width="452.31" height="260.65" rx="1.21"/><rect class="cls-7" x="435.41" y="243.99" width="78.98" height="182.87"/><rect class="cls-8" x="446.28" y="256.59" width="58.39" height="58.39"/><rect class="cls-9" x="446.28" y="326.18" width="58.39" height="58.39"/><rect class="cls-7" x="87.12" y="243.99" width="78.98" height="182.87"/><rect class="cls-8" x="97.98" y="256.59" width="58.39" height="58.39"/><rect class="cls-9" x="97.98" y="326.18" width="58.39" height="58.39"/><rect class="cls-7" x="176.36" y="243.99" width="245.18" height="183.63"/><rect class="cls-5" x="87.12" y="178.8" width="427.28" height="55.06"/><path class="cls-8" d="M370.9,326.18a71.29,71.29,0,1,1-71.29-71.3A71.28,71.28,0,0,1,370.9,326.18Z"/><rect class="cls-3" x="297.51" y="250.2" width="4.79" height="32.25" rx="0.44"/><path class="cls-3" d="M278.05,288.14l-.08.05a2.35,2.35,0,0,1-3.21-.86L261,263.47a2.36,2.36,0,0,1,.86-3.21l.08-.05a2.36,2.36,0,0,1,3.21.86l13.78,23.86A2.35,2.35,0,0,1,278.05,288.14Z"/><path class="cls-3" d="M261.92,304l-.05.08a2.34,2.34,0,0,1-3.2.86L234.8,291.18a2.35,2.35,0,0,1-.86-3.21l.05-.08a2.35,2.35,0,0,1,3.21-.86l23.86,13.78A2.35,2.35,0,0,1,261.92,304Z"/><path class="cls-3" d="M261.58,347.74l0,.08a2.35,2.35,0,0,1-.86,3.21L236.9,364.81a2.36,2.36,0,0,1-3.21-.87l0-.08a2.33,2.33,0,0,1,.86-3.2l23.86-13.78A2.35,2.35,0,0,1,261.58,347.74Z"/><path class="cls-3" d="M277.45,363.87l.08.05a2.34,2.34,0,0,1,.86,3.21L264.62,391a2.34,2.34,0,0,1-3.21.86l-.08,0a2.34,2.34,0,0,1-.86-3.21l13.78-23.86A2.33,2.33,0,0,1,277.45,363.87Z"/><rect class="cls-3" x="296.92" y="369.9" width="4.79" height="32.25" rx="0.44" transform="translate(598.63 772.04) rotate(180)"/><path class="cls-3" d="M321.17,364.21l.09,0a2.34,2.34,0,0,1,3.2.85l13.78,23.87a2.35,2.35,0,0,1-.86,3.21l-.08,0a2.35,2.35,0,0,1-3.21-.86l-13.78-23.86A2.35,2.35,0,0,1,321.17,364.21Z"/><path class="cls-3" d="M337.3,348.33l.05-.07a2.35,2.35,0,0,1,3.21-.87l23.86,13.78a2.35,2.35,0,0,1,.86,3.21l0,.08a2.35,2.35,0,0,1-3.21.86l-23.86-13.78A2.35,2.35,0,0,1,337.3,348.33Z"/><path class="cls-3" d="M337.65,304.61l0-.08a2.34,2.34,0,0,1,.86-3.2l23.86-13.78a2.34,2.34,0,0,1,3.21.86l0,.08a2.34,2.34,0,0,1-.85,3.21l-23.86,13.77A2.34,2.34,0,0,1,337.65,304.61Z"/><path class="cls-3" d="M321.77,288.48l-.08,0a2.34,2.34,0,0,1-.86-3.21l13.77-23.86a2.35,2.35,0,0,1,3.21-.86l.08,0a2.36,2.36,0,0,1,.87,3.21L325,287.63A2.35,2.35,0,0,1,321.77,288.48Z"/><rect class="cls-10" x="196.2" y="303.27" width="207.08" height="45.82" rx="1"/><path class="cls-11" d="M418.4,347.25A17.43,17.43,0,1,1,401,329.83,17.43,17.43,0,0,1,418.4,347.25Z"/><polygon class="cls-3" points="411.21 341.06 407.17 337.02 400.97 343.21 394.78 337.02 390.74 341.06 396.93 347.25 390.74 353.45 394.78 357.49 400.97 351.29 407.17 357.49 411.21 353.45 405.02 347.25 411.21 341.06"/><path class="cls-11" d="M512.55,384.57a7.88,7.88,0,1,1-7.88-7.88A7.87,7.87,0,0,1,512.55,384.57Z"/><path class="cls-11" d="M512.55,315a7.88,7.88,0,1,1-7.88-7.88A7.88,7.88,0,0,1,512.55,315Z"/><path class="cls-11" d="M164.25,384.57a7.88,7.88,0,1,1-7.88-7.88A7.87,7.87,0,0,1,164.25,384.57Z"/><path class="cls-11" d="M164.25,315a7.88,7.88,0,1,1-7.88-7.88A7.88,7.88,0,0,1,164.25,315Z"/><path class="cls-3" d="M318.5,311.63l-18-42.58c-.5-1.95-28.39,28.11-28.39,28.11l30.67,30.18Z"/><polygon class="cls-4" points="302.12 272.87 255.98 319 294.34 335.79 306.41 323.73 285.09 302.37 305.82 281.63 302.12 272.87"/><path class="cls-5" d="M293.63,358a3.38,3.38,0,0,1-4.79,0l-5.25-5.24a3.39,3.39,0,0,1,0-4.79l.8-.8a3.39,3.39,0,0,1,4.8,0l5.24,5.24a3.39,3.39,0,0,1,0,4.8Z"/><polygon class="cls-6" points="334.14 335.51 338.28 331.42 318.5 311.63 314.38 315.75 314.36 315.77 314.35 315.79 310.5 319.64 310.48 319.65 306.41 323.73 326.19 343.51 330.25 339.4 334.14 335.51"/><polygon points="322.06 347.59 326.21 343.49 306.43 323.7 302.31 327.82 302.29 327.85 302.28 327.86 298.43 331.71 298.41 331.72 294.34 335.79 314.11 355.58 318.19 351.46 322.06 347.59"/><path class="cls-5" d="M287,379.06a3.41,3.41,0,0,1-4.81,0l-11.32-11.32a3.4,3.4,0,0,1,0-4.8l.8-.8a3.4,3.4,0,0,1,4.8,0l11.32,11.33a3.39,3.39,0,0,1,0,4.79Z"/><path d="M302.77,268.07l-1.56-1.56a2.93,2.93,0,0,0-4.14,0l-23.92,23.91h0l-23.94,23.95a3,3,0,0,0,0,4.15l1.56,1.55a2.93,2.93,0,0,0,4.14,0l23.92-23.92,23.94-23.94A2.93,2.93,0,0,0,302.77,268.07Z"/><path class="cls-3" d="M309.84,351.3l-11.25-11.25-4.25-4.26h0a6,6,0,0,1,0,8.49l-17.87,17.87,11.25,11.25,17.87-17.86a6,6,0,0,1,8.49,0h0Z"/><path class="cls-5" d="M336.43,333.21l-21.07,21.08a12.66,12.66,0,0,0,4.9,3l19.22-19.21A12.65,12.65,0,0,0,336.43,333.21Z"/><path class="cls-3" d="M337.38,340.21l-15,15a10,10,0,0,0,10.28-2.37l2.35-2.35A10,10,0,0,0,337.38,340.21Z"/><path class="cls-5" d="M280.37,283.2l-15,15A10,10,0,0,1,267.71,288l2.36-2.35A10,10,0,0,1,280.37,283.2Z"/><path class="cls-3" d="M384.7,435.24l17.18-29.08c.55-1.36,17.8,23.12,17.8,23.12l-25.15,18.86Z"/><polygon class="cls-4" points="400.34 408.77 429.24 446.68 399.83 455.09 392.27 445.17 409.79 431.79 396.8 414.76 400.34 408.77"/><path class="cls-5" d="M398.18,471.24a2.46,2.46,0,0,0,3.46.47l4.31-3.29a2.46,2.46,0,0,0,.47-3.46l-.5-.66a2.47,2.47,0,0,0-3.47-.47l-4.31,3.28a2.48,2.48,0,0,0-.47,3.48Z"/><polygon class="cls-6" points="371.05 451 368.45 447.63 384.7 435.24 387.27 438.62 387.29 438.63 387.3 438.65 389.71 441.81 389.72 441.82 392.27 445.17 376.02 457.56 373.48 454.19 371.05 451"/><polygon points="378.61 460.92 376 457.54 392.26 445.15 394.84 448.54 394.85 448.56 394.86 448.56 397.27 451.73 397.28 451.74 399.83 455.09 383.58 467.48 381.03 464.1 378.61 460.92"/><path class="cls-5" d="M400.94,487.13a2.48,2.48,0,0,0,3.47.47l9.3-7.1a2.47,2.47,0,0,0,.47-3.47l-.5-.65a2.47,2.47,0,0,0-3.47-.47l-9.3,7.09a2.47,2.47,0,0,0-.47,3.47Z"/><path d="M400.34,405.23l1.28-1a2.15,2.15,0,0,1,3,.4l15,19.65h0l15,19.67a2.13,2.13,0,0,1-.41,3l-1.27,1a2.15,2.15,0,0,1-3-.41l-15-19.65-15-19.67A2.15,2.15,0,0,1,400.34,405.23Z"/><path class="cls-3" d="M387.09,464.8l9.25-7.05,3.49-2.66h0a4.38,4.38,0,0,0-.83,6.15l11.19,14.67L401,483l-11.2-14.67a4.37,4.37,0,0,0-6.14-.84h0Z"/><path class="cls-5" d="M369.61,449.11l13.2,17.31a9.28,9.28,0,0,1-3.85,1.73l-12-15.79A9.18,9.18,0,0,1,369.61,449.11Z"/><path class="cls-3" d="M368.24,454.08l9.41,12.35a7.28,7.28,0,0,1-7.21-2.72L369,461.78A7.29,7.29,0,0,1,368.24,454.08Z"/><path class="cls-5" d="M415.07,418.37l9.42,12.35a7.28,7.28,0,0,0-.72-7.67l-1.47-1.94A7.31,7.31,0,0,0,415.07,418.37Z"/></g></g></svg>