<svg xmlns="http://www.w3.org/2000/svg" viewBox="0 0 600 600"><defs><style>.cls-1{fill:#ce0099;}.cls-2{fill:#9e077e;opacity:0.52;}.cls-3{fill:#fff;}.cls-4{fill:#aaa;}.cls-5{fill:#e2e2e2;}.cls-6{fill:#c9c9c9;}.cls-7{fill:#eaaf9b;}.cls-8{fill:#cc9185;}.cls-9{fill:#073b5b;}.cls-10{fill:#052c44;}</style></defs><g id="Capa_2" data-name="Capa 2"><g id="Capa_1-2" data-name="Capa 1"><rect class="cls-1" width="600" height="600"/><polygon class="cls-2" points="0 0 0 600 600 600 0 0"/><polyline class="cls-2" points="0 600 600 0 0 0"/><path class="cls-3" d="M303.52,203.54l-53-53V127.15c3.87,0,11.25,1,11.13-4.89V100a4.88,4.88,0,0,0-4.89-4.89H234.49A4.89,4.89,0,0,0,229.6,100v22.28c-.11,5.86,7.25,4.91,11.13,4.89.2.86-.44,27.26.38,27.27.39,1.92,53,53,54.07,54.6v50c-.1,6.33,9.88,6.36,9.78,0C304.52,258.21,306.26,201.89,303.52,203.54Zm-64.14-98.66h12.49v12.48H239.38Z"/><path class="cls-3" d="M228.31,218.22l-19.72-19.73V127c17.93-5.21,14-32.72-4.9-32.54-18.87-.18-22.82,27.33-4.89,32.54.37,1.91-.71,73.74.38,75.4a4.81,4.81,0,0,0,1.06,1.6L220,223.71v38.34c-.09,6.34,9.88,6.36,9.79,0C229.15,260,231.27,218.61,228.31,218.22Zm-24.62-114c8.95-.37,8.88,14.5,0,13.46C194.82,118.73,194.74,103.85,203.69,104.23Z"/><path class="cls-3" d="M414.9,111.12a16.7,16.7,0,0,0-16.68-16.68c-18.88-.18-22.83,27.33-4.9,32.54V184.1l-45.46,45.46a4.92,4.92,0,0,0-1.43,3.46v31.89a4.89,4.89,0,0,0,9.78,0V235.05c55.89-59,46.53-26.24,46.9-108.07A16.65,16.65,0,0,0,414.9,111.12Zm-15.61,6.78c-9.59,1.15-10.86-13.33-1.07-13.67C406.51,104.05,407.45,116.83,399.29,117.9Z"/><path class="cls-3" d="M326.37,99.33c-12.49-.4-16.13,18-4.75,22.56-.42.35,0,139.64-.14,140.16a4.9,4.9,0,1,0,9.79,0c-.15-.81.27-139.5-.14-140.16C342.52,117.35,338.86,98.93,326.37,99.33Z"/><rect class="cls-4" x="208.35" y="392.7" width="6.08" height="9.21"/><rect class="cls-4" x="402.93" y="392.7" width="6.08" height="9.21"/><rect class="cls-4" x="402.93" y="359.34" width="6.08" height="11.12"/><rect class="cls-4" x="190.11" y="392.7" width="6.08" height="9.21"/><polygon class="cls-4" points="226.59 401.91 226.59 401.91 226.59 401.91 232.67 401.91 232.67 392.7 226.59 392.7 226.59 401.91"/><path class="cls-4" d="M422.4,349.9l-2.28-2.29c2.55.57.35,52.32,1.06,54.3h6.08V392.7H422.4V370.46h4.86V359.34H422.4Z"/><path class="cls-5" d="M389,352.83,383.24,347c-.1.25,5.51,5.73,5.79,6Z"/><path class="cls-5" d="M422.4,349.74l-2.6-2.59a31.63,31.63,0,0,0,2.6,2.75Z"/><path class="cls-4" d="M389,353.06l-5.31-5.31c2.52,1.24.2,51.76,1,54.16h6.08V392.7H389V370.46h1.74V359.34H389Z"/><polygon class="cls-4" points="478 392.7 455.76 392.7 455.76 370.46 461.46 370.46 444.64 353.63 444.64 359.34 439.42 359.34 439.42 370.46 444.64 370.46 444.64 392.7 439.42 392.7 439.42 401.91 439.42 401.91 488.14 401.91 488.14 397.14 478 386.99 478 392.7"/><path class="cls-5" d="M354.28,370.46a12.58,12.58,0,0,1,1.39.14v-.14h16.86V359.34H355.67V337.1h22.24v7.8c4.3-1.09,8.26,5.75,11.12,7.93V337.1h22.24v9.12c4-3.69,8.46.33,11.13,3.52V337.1h22.24v16.53l16.82,16.83H478V387l10.14,10.15V259H112V401.91h47.7V392.7h-4.2V370.46h4.2V359.34H122.14V337.1h55.6v17.4l.2.2v-3.85c-.2-5.75,7.83-8.31,10.92-3.51V337.1h22.25v14.11l3.32,3.33c-.81-5,1.74-11.32,7.8-9.43v-8h22.23v22.24h-7.13l11.12,11.12h62.74V392.7H270.7l9.2,9.21h74.38V370.46ZM455.76,270.37H478v22.24H455.76Zm0,33.36H478v55.61H455.76ZM422.4,270.37h22.24v22.24H422.4Zm0,33.36h22.24V326H422.4ZM389,270.37h22.24v22.24H389Zm0,33.36h22.24V326H389Zm-33.36-33.36h22.24v22.24H355.67Zm0,33.36h22.24V326H355.67ZM144.38,370.46V392.7H122.14V370.46Zm0-44.48H122.14V303.73h22.24Zm0-33.37H122.14V270.37h22.24ZM177.74,326H155.5V303.73h22.24Zm0-33.37H155.5V270.37h22.24ZM211.11,326H188.86V303.73h22.25Zm0-33.37H188.86V270.37h22.25ZM244.46,326H222.23V303.73h22.23Zm0-33.37H222.23V270.37h22.23Zm33.37,66.73H255.59V337.1h22.24Zm0-33.36H255.59V303.73h22.24Zm0-33.37H255.59V270.37h22.24Zm33.36,66.73H289V337.1h22.24Zm0-33.36H289V303.73h22.24Zm0-33.37H289V270.37h22.24ZM344.55,392.7H322.31V370.46h22.24Zm0-33.36H322.31V337.1h22.24Zm0-33.36H322.31V303.73h22.24Zm0-33.37H322.31V270.37h22.24Z"/><polygon class="cls-4" points="208.35 359.34 208.35 370.46 214.43 370.46 214.43 354.54 211.11 351.21 211.11 359.34 208.35 359.34"/><polygon class="cls-4" points="171.86 359.34 171.86 370.46 177.74 370.46 177.74 392.7 171.86 392.7 171.86 401.91 177.94 401.91 177.94 354.7 177.74 354.5 177.74 359.34 171.86 359.34"/><polygon class="cls-4" points="226.59 370.46 248.45 370.46 237.33 359.34 226.59 359.34 226.59 370.46"/><polygon class="cls-4" points="244.84 392.7 244.84 401.91 279.9 401.91 270.7 392.7 244.84 392.7"/><rect class="cls-4" x="190.11" y="359.34" width="6.08" height="11.12"/><polygon class="cls-4" points="366.45 401.91 372.52 401.91 372.52 401.91 372.52 392.7 366.45 392.7 366.45 401.91"/><rect class="cls-3" x="122.14" y="270.37" width="22.24" height="22.24"/><rect class="cls-3" x="155.5" y="270.37" width="22.24" height="22.24"/><rect class="cls-3" x="188.86" y="270.37" width="22.24" height="22.24"/><rect class="cls-3" x="222.23" y="270.37" width="22.24" height="22.24"/><rect class="cls-3" x="255.59" y="270.37" width="22.24" height="22.24"/><rect class="cls-3" x="288.95" y="270.37" width="22.24" height="22.24"/><rect class="cls-3" x="322.31" y="270.37" width="22.24" height="22.24"/><rect class="cls-3" x="355.67" y="270.37" width="22.24" height="22.24"/><rect class="cls-3" x="389.03" y="270.37" width="22.24" height="22.24"/><rect class="cls-3" x="422.4" y="270.37" width="22.24" height="22.24"/><rect class="cls-3" x="455.76" y="270.37" width="22.24" height="22.24"/><rect class="cls-3" x="122.14" y="303.73" width="22.24" height="22.24"/><rect class="cls-3" x="155.5" y="303.73" width="22.24" height="22.24"/><rect class="cls-3" x="188.86" y="303.73" width="22.24" height="22.24"/><rect class="cls-3" x="222.23" y="303.73" width="22.24" height="22.24"/><rect class="cls-3" x="255.59" y="303.73" width="22.24" height="22.24"/><rect class="cls-3" x="288.95" y="303.73" width="22.24" height="22.24"/><rect class="cls-3" x="322.31" y="303.73" width="22.24" height="22.24"/><rect class="cls-3" x="355.67" y="303.73" width="22.24" height="22.24"/><rect class="cls-3" x="389.03" y="303.73" width="22.24" height="22.24"/><rect class="cls-3" x="422.4" y="303.73" width="22.24" height="22.24"/><rect class="cls-3" x="455.76" y="303.73" width="22.24" height="55.6"/><path class="cls-3" d="M165.78,344.77c4.18-.14,9,7.48,12,9.73V337.1h-55.6v22.24H159.7C159.78,354.44,158.2,344.63,165.78,344.77Z"/><path class="cls-6" d="M171.86,350.85v8.49h5.88V354.5l-7.06-7.07A5.93,5.93,0,0,1,171.86,350.85Z"/><path class="cls-6" d="M208.35,350.85v8.49h2.76v-8.13l-4.28-4.27A6,6,0,0,1,208.35,350.85Z"/><path class="cls-3" d="M196.19,354.8c-1.26-7.32,4.28-13.64,10.64-7.86l-.63-.63,4.91,4.9V337.1H188.86v10.24C188.93,347.8,196,354.46,196.19,354.8Z"/><path class="cls-6" d="M190.11,350.85v8.49h6.08V354.8L189,347.63A5.74,5.74,0,0,1,190.11,350.85Z"/><path class="cls-6" d="M226.59,350.85v8.49h10.74L225.5,347.51A5.77,5.77,0,0,1,226.59,350.85Z"/><path class="cls-3" d="M225.5,347.51l11.83,11.83h7.13V337.1H222.23v8A6.15,6.15,0,0,1,225.5,347.51Z"/><rect class="cls-3" x="255.59" y="337.1" width="22.24" height="22.24"/><rect class="cls-3" x="288.95" y="337.1" width="22.24" height="22.24"/><rect class="cls-3" x="322.31" y="337.1" width="22.24" height="22.24"/><path class="cls-3" d="M355.67,337.1v22.24h16.86c.16-4.66-1.58-13.95,5.38-14.44v-7.8Z"/><path class="cls-6" d="M402.93,350.85v8.49H409v-4.51l-7-7A5.89,5.89,0,0,1,402.93,350.85Z"/><path class="cls-3" d="M402,347.83l7,7v-.08l-7.15-7.16Z"/><path class="cls-3" d="M389,337.1v15.73l1.74,1.74c-.53-4.31.73-9.88,6.08-9.8a6,6,0,0,1,5,2.82l7.15,7.16c-.05-2.79-.36-6.77,2.26-8.53V337.1Z"/><polygon class="cls-3" points="389.03 353.06 390.77 354.8 390.77 354.57 389.03 352.83 389.03 353.06"/><polygon class="cls-6" points="389.03 359.34 390.77 359.34 390.77 354.8 389.03 353.06 389.03 359.34"/><path class="cls-3" d="M444.64,337.1H422.4v12.64l4.86,4.87c-.53-4.32.71-9.92,6.08-9.84,3.93-.32,8.62,6.78,11.3,8.86Z"/><path class="cls-6" d="M444.64,353.63l-6.82-6.81c2.6,2.15,1.32,9.61,1.6,12.52h5.22Z"/><polygon class="cls-6" points="422.39 359.34 427.26 359.34 427.26 354.76 422.39 349.9 422.39 359.34"/><polygon class="cls-3" points="422.39 349.9 427.26 354.76 427.26 354.61 422.39 349.74 422.39 349.9"/><rect class="cls-3" x="122.14" y="370.46" width="22.24" height="22.24"/><rect class="cls-3" x="155.5" y="370.46" width="4.2" height="22.24"/><rect class="cls-6" x="171.86" y="370.46" width="5.88" height="22.24"/><rect class="cls-6" x="208.35" y="370.46" width="6.08" height="22.24"/><polygon class="cls-3" points="311.19 392.7 311.19 370.46 248.45 370.46 270.7 392.7 311.19 392.7"/><path class="cls-6" d="M226.59,392.7h6.08c-.54-9.57-.49-21.88,12.17-22.24V392.7H270.7l-22.25-22.24H226.59Z"/><rect class="cls-6" x="190.11" y="370.46" width="6.08" height="22.24"/><rect class="cls-3" x="322.31" y="370.46" width="22.24" height="22.24"/><path class="cls-3" d="M364.12,375.57l8.41,8.41v-.16l-8.93-8.93C363.78,375.11,364,375.34,364.12,375.57Z"/><path class="cls-3" d="M355.67,370.6c6.41.33,12.42,9.5,16.86,13.22V370.46H355.67Z"/><path class="cls-6" d="M366.45,382.62V392.7h6.08V384l-8.41-8.41A12,12,0,0,1,366.45,382.62Z"/><rect class="cls-6" x="402.93" y="370.46" width="6.08" height="22.24"/><rect class="cls-6" x="389.03" y="370.46" width="1.74" height="22.24"/><rect class="cls-6" x="422.4" y="370.46" width="4.86" height="22.24"/><rect class="cls-6" x="439.42" y="370.46" width="5.21" height="22.24"/><polygon class="cls-3" points="478 370.46 461.46 370.46 478 386.99 478 370.46"/><polygon class="cls-6" points="455.76 392.7 478 392.7 478 386.99 461.46 370.46 455.76 370.46 455.76 392.7"/><path class="cls-7" d="M244.84,370.46c-12.68.36-12.71,12.68-12.17,22.24,0,4.25,0,12.91,0,17.14h-6.08v-7.93h0c0-6,0-25.18,0-31.45V359.34c0-4.94,1.4-14.47-6.08-14.57-5.32-.07-6.62,5.45-6.08,9.77v15.92c0,6.34,0,25.38,0,31.45h-6.08V350.85c0-7.81-12.25-7.93-12.16,0,0,15.24,0,35.76,0,51.06h-6.08c0-5.94,0-25.19,0-31.45V359.34c-.24-2.61.79-9.92-1.25-12-3.09-4.79-11.12-2.25-10.92,3.51v51.06h-6.08c0-6,0-25.18,0-31.45V359.34c-.05-4.86,1.39-14.59-6.08-14.57-7.58-.14-6,9.67-6.08,14.57v11.12c0,6.34,0,25.38,0,31.45h0c.14,8.1-.31,49.86.2,58.39h72.64c-.78-7.41,3.93-13.37,9.27-17.91,5.75-3.8,2-34.77,3-40.48,0-6.17,0-25,0-31.45Zm-79.06,48.7c-6.05.09-6-9.41,0-9.32C171.82,409.75,171.83,419.25,165.78,419.16Zm18.24,0c-6,.09-6-9.41,0-9.32C190.07,409.75,190.08,419.25,184,419.16Zm18.25,0c-6.05.09-6.05-9.41,0-9.32C208.31,409.75,208.32,419.25,202.27,419.16Zm18.24,0c-6,.09-6-9.41,0-9.32C226.56,409.75,226.56,419.25,220.51,419.16Z"/><path class="cls-8" d="M165.78,409.84c-6-.09-6.05,9.41,0,9.32C171.83,419.25,171.82,409.75,165.78,409.84Z"/><path class="cls-8" d="M184,409.84c-6-.09-6,9.41,0,9.32C190.08,419.25,190.07,409.75,184,409.84Z"/><path class="cls-8" d="M202.27,409.84c-6.05-.09-6.05,9.41,0,9.32C208.32,419.25,208.31,409.75,202.27,409.84Z"/><path class="cls-8" d="M220.51,409.84c-6-.09-6,9.41,0,9.32C226.56,419.25,226.56,409.75,220.51,409.84Z"/><path class="cls-9" d="M159.9,460.3h-10a45.35,45.35,0,0,0,47.26,45.22V460.3Z"/><path class="cls-10" d="M197.2,505.52a45.33,45.33,0,0,0,47.26-45.22H197.2Z"/><path class="cls-7" d="M437.82,346.82c-3.41-4.16-10.75-1.42-10.56,4v51.06h-6.08c-.77-2.33,1.55-53.38-1.06-54.29-2.9-5.13-11.21-2.6-11.11,3.23v51.06h-6.08c0-15.26,0-35.86,0-51.06-.09-7.77-12.22-8-12.16,0v51.06h-6.08c-.8-2.76,1.58-52.6-1-54.16-2.76-5.22-11.36-2.81-11.19,3.1,0,16.29,0,34.77,0,51.06h0v7.93h-6.08V392.7c.56-9.63.44-21.67-12.17-22.24h0v31.45c1,5.91-2.74,36.51,3,40.48,5.34,4.53,10.05,10.5,9.27,17.91h72.64c.51-8.6.06-50.21.2-58.39h0V359.34C439.14,356.46,440.42,349,437.82,346.82Zm-59.21,72.34c-6.05.09-6.05-9.41,0-9.32C384.65,409.75,384.66,419.25,378.61,419.16Zm18.24,0c-6.05.09-6-9.41,0-9.32C402.9,409.75,402.9,419.25,396.85,419.16Zm18.25,0c-6.06.09-6.05-9.41,0-9.32C421.14,409.75,421.14,419.25,415.1,419.16Zm18.24,0c-6,.09-6-9.41,0-9.32C439.38,409.75,439.39,419.25,433.34,419.16Z"/><path class="cls-8" d="M433.34,409.84c-6-.09-6,9.41,0,9.32C439.39,419.25,439.38,409.75,433.34,409.84Z"/><path class="cls-8" d="M415.1,409.84c-6.05-.09-6.06,9.41,0,9.32C421.14,419.25,421.14,409.75,415.1,409.84Z"/><path class="cls-8" d="M396.85,409.84c-6-.09-6.05,9.41,0,9.32C402.9,419.25,402.9,409.75,396.85,409.84Z"/><path class="cls-8" d="M378.61,409.84c-6.05-.09-6.05,9.41,0,9.32C384.66,419.25,384.65,409.75,378.61,409.84Z"/><path class="cls-10" d="M401.92,505.52a45.33,45.33,0,0,0,47.26-45.22H401.92Z"/><path class="cls-9" d="M366.58,460.3H354.66a45.33,45.33,0,0,0,47.26,45.22V460.3Z"/></g></g></svg>