<svg xmlns="http://www.w3.org/2000/svg" viewBox="0 0 600 600"><defs><style>.cls-1{fill:#ef433f;}.cls-2{fill:#932727;opacity:0.52;}.cls-3{fill:#e88828;}.cls-4{fill:#8dd6e1;}.cls-5{fill:#10aac1;}.cls-6{fill:#f4a82d;}.cls-7{fill:#f4d34a;}.cls-8{fill:#fff;}</style></defs><g id="Capa_2" data-name="Capa 2"><g id="Capa_1-2" data-name="Capa 1"><rect class="cls-1" width="600" height="600"/><polygon class="cls-2" points="0 0 0 600 600 600 0 0"/><polyline class="cls-2" points="0 600 600 0 0 0"/><rect class="cls-3" x="156.96" y="383.15" width="83.21" height="32.66" rx="1.82"/><path class="cls-4" d="M219.93,486.5h0a7.41,7.41,0,0,1-9.34-4.75l-38.49-118,14.09-4.6,38.49,118A7.42,7.42,0,0,1,219.93,486.5Z"/><path class="cls-4" d="M398.81,496.8h0a7.42,7.42,0,0,1-4.29-9.56l59-154.92,13.85,5.28-59,154.91A7.4,7.4,0,0,1,398.81,496.8Z"/><path class="cls-5" d="M323.7,487h0a7.42,7.42,0,0,1-6.54-8.19l13.21-118.07,14.73,1.65L331.89,480.44A7.4,7.4,0,0,1,323.7,487Z"/><rect class="cls-3" x="396.49" y="212.58" width="83.22" height="32.66" rx="1.82"/><rect class="cls-3" x="43.43" y="201.69" width="83.21" height="32.66" rx="1.82"/><rect class="cls-3" x="265.56" y="333.55" width="154.1" height="60.48" rx="1.82"/><path d="M301.69,376.91a20.83,20.83,0,0,1-.28-3.31,21.76,21.76,0,0,1,.28-3.36A20.81,20.81,0,0,1,305,370a21.72,21.72,0,0,1,3.36.27,21.38,21.38,0,0,1,.27,3.31,21.14,21.14,0,0,1-.27,3.36,21.51,21.51,0,0,1-3.32.27A21,21,0,0,1,301.69,376.91Z"/><path d="M314.75,353.46a11.21,11.21,0,0,1,1.27-.21c.42,0,.89-.07,1.41-.07a13.52,13.52,0,0,1,1.36.07,11.56,11.56,0,0,1,1.22.21,2.45,2.45,0,0,1,.25.65c.08.29.15.6.21.91s.11.63.16.93.08.56.11.77a10,10,0,0,1,1.09-1.36,7.69,7.69,0,0,1,1.47-1.22,8,8,0,0,1,1.88-.89,7.69,7.69,0,0,1,2.32-.34q4,0,6,2.18t2,6.85v15a19.4,19.4,0,0,1-6.45,0V363.66a7.71,7.71,0,0,0-.74-3.76,2.75,2.75,0,0,0-2.61-1.32,6,6,0,0,0-1.59.23,3.41,3.41,0,0,0-1.47.88,4.71,4.71,0,0,0-1.07,1.84,9.72,9.72,0,0,0-.41,3.08v12.3a19.34,19.34,0,0,1-6.44,0Z"/><path d="M346.5,367.16a5,5,0,0,0,1.91,3.94,7.65,7.65,0,0,0,4.54,1.23,17.12,17.12,0,0,0,3.15-.3,16.81,16.81,0,0,0,3.06-.84,10.65,10.65,0,0,1,.86,2.18,10.82,10.82,0,0,1,.41,2.72,22,22,0,0,1-8,1.37,15.63,15.63,0,0,1-5.61-.91,9.6,9.6,0,0,1-6-6.36,15.92,15.92,0,0,1-.71-4.85,15.64,15.64,0,0,1,.73-4.85,11.36,11.36,0,0,1,2.15-3.95,10.3,10.3,0,0,1,3.54-2.65,11.64,11.64,0,0,1,4.92-1,10.54,10.54,0,0,1,4.36.86,9.61,9.61,0,0,1,3.24,2.36,10,10,0,0,1,2,3.56,13.87,13.87,0,0,1,.68,4.42c0,.58,0,1.15-.07,1.71a13.48,13.48,0,0,1-.15,1.34Zm9.21-4.5a5.7,5.7,0,0,0-1.2-3.51,3.83,3.83,0,0,0-3.11-1.34,4.51,4.51,0,0,0-3.45,1.27,6,6,0,0,0-1.4,3.58Z"/><path d="M367.51,358.36h-2.95l-.23-.91,8.49-10.84h1v6.85h5.49a10.94,10.94,0,0,1,.18,1.22c0,.36,0,.74,0,1.13s0,.84,0,1.23a12.84,12.84,0,0,1-.18,1.32h-5.49v9.2a8.75,8.75,0,0,0,.23,2.27,3.26,3.26,0,0,0,.66,1.36,2,2,0,0,0,1.06.68,5.47,5.47,0,0,0,1.5.19,7.5,7.5,0,0,0,1.34-.12l1.15-.2a8.87,8.87,0,0,1,.46,1.79,11.58,11.58,0,0,1,.13,1.66c0,.33,0,.61,0,.84s0,.44-.07.65a18.62,18.62,0,0,1-4.31.5q-4.12,0-6.3-1.92c-1.46-1.29-2.18-3.39-2.18-6.29Z"/><rect class="cls-6" x="348.14" y="259.69" width="217.11" height="85.22" rx="1.82"/><path d="M391.83,318.77a28.64,28.64,0,0,1-.39-4.66,29.77,29.77,0,0,1,.39-4.73,28.55,28.55,0,0,1,4.66-.39,29.77,29.77,0,0,1,4.73.39,29.39,29.39,0,0,1,.39,4.66,29,29,0,0,1-.39,4.73,29.39,29.39,0,0,1-4.66.39A28.93,28.93,0,0,1,391.83,318.77Z"/><path d="M428.77,313.27c3.88.09,6.73,1,8.56,2.59a9.85,9.85,0,0,1,1.35,11.89,12.16,12.16,0,0,1-3.84,3.74,19.63,19.63,0,0,1-5.75,2.36,29.16,29.16,0,0,1-7.16.84,30.29,30.29,0,0,1-6.52-.61,13.71,13.71,0,0,1-4.38-1.7,6.24,6.24,0,0,1-2.42-2.68,8.2,8.2,0,0,1-.74-3.52,7.8,7.8,0,0,1,1.37-4.73,13.21,13.21,0,0,1,3.68-3.26,7.28,7.28,0,0,1-2.34-2.2,6,6,0,0,1-.86-3.36,6.9,6.9,0,0,1,1-3.95,11.55,11.55,0,0,1,3-2.95,11.13,11.13,0,0,1-3.45-3.89,10.81,10.81,0,0,1-1.22-5.12,11.16,11.16,0,0,1,1-4.63,10.6,10.6,0,0,1,2.78-3.71,13.54,13.54,0,0,1,4.45-2.46,18,18,0,0,1,5.88-.89,17.05,17.05,0,0,1,5.87,1,14.91,14.91,0,0,1,4.48,2.53,7.77,7.77,0,0,1,3-2.4,12.2,12.2,0,0,1,4.86-.8c.08.56.16,1.1.22,1.64a12.91,12.91,0,0,1,.1,1.69c0,.68,0,1.36-.07,2.05a17.62,17.62,0,0,1-.25,2.1h-5.18a8.44,8.44,0,0,1,.58,1.54,8.85,8.85,0,0,1,.25,2.36,11.72,11.72,0,0,1-.92,4.64,10.12,10.12,0,0,1-2.72,3.67,13.39,13.39,0,0,1-4.38,2.43,17.69,17.69,0,0,1-5.84.89,19.47,19.47,0,0,1-4.93-.57,3,3,0,0,0-1.34,1.5,4.9,4.9,0,0,0-.25,1.5,2.17,2.17,0,0,0,.67,1.66,4.22,4.22,0,0,0,2.71.71Zm-8.18,6.65a5.41,5.41,0,0,0-2.33.32,4.17,4.17,0,0,0-1.48,1,3.6,3.6,0,0,0-.76,1.34,4.91,4.91,0,0,0-.23,1.44,3.28,3.28,0,0,0,1.83,3.29,11.46,11.46,0,0,0,4.89.86,14.12,14.12,0,0,0,6.48-1.27,3.86,3.86,0,0,0,2.46-3.45,4.39,4.39,0,0,0-.16-1.22,2.54,2.54,0,0,0-.6-1.05,3.41,3.41,0,0,0-1.25-.8,5.74,5.74,0,0,0-2.14-.32Zm2.62-17.44a4.56,4.56,0,0,0,3.86-1.54,6.74,6.74,0,0,0,1.19-4.22,6.88,6.88,0,0,0-1.19-4.25,4.52,4.52,0,0,0-3.86-1.57,4.72,4.72,0,0,0-4,1.57,6.75,6.75,0,0,0-1.22,4.25,6.62,6.62,0,0,0,1.22,4.22A4.76,4.76,0,0,0,423.21,302.48Z"/><path d="M459.76,319.54a17.26,17.26,0,0,1-7-1.31,13.22,13.22,0,0,1-4.92-3.65,15.46,15.46,0,0,1-2.94-5.46,22.08,22.08,0,0,1-1-6.77,22.67,22.67,0,0,1,1-6.84,15.44,15.44,0,0,1,2.94-5.53,13.48,13.48,0,0,1,4.92-3.67,16.76,16.76,0,0,1,7-1.35,17.07,17.07,0,0,1,7,1.35,13.7,13.7,0,0,1,5,3.67,15.14,15.14,0,0,1,2.94,5.53,23.66,23.66,0,0,1,1,6.84,23,23,0,0,1-1,6.77,15.15,15.15,0,0,1-2.94,5.46,13.43,13.43,0,0,1-5,3.65A17.58,17.58,0,0,1,459.76,319.54Zm0-6.91a5.51,5.51,0,0,0,5.15-2.65c1-1.76,1.57-4.31,1.57-7.63s-.53-5.87-1.57-7.64a5.51,5.51,0,0,0-5.15-2.65,5.42,5.42,0,0,0-5.07,2.65c-1.05,1.77-1.57,4.31-1.57,7.64s.52,5.87,1.57,7.63A5.42,5.42,0,0,0,459.76,312.63Z"/><path d="M477.41,285.79a18.41,18.41,0,0,1,2.84-.38c.87,0,1.63-.07,2.27-.07.85,0,1.7,0,2.56.07a12.94,12.94,0,0,1,2.36.32l7.22,24.6,7.09-24.6a22.75,22.75,0,0,1,2.31-.29c.81-.06,1.61-.1,2.43-.1.64,0,1.37,0,2.2.07a19.77,19.77,0,0,1,2.84.38l-12.52,33a24.89,24.89,0,0,1-2.56.26c-.89,0-1.64.06-2.24.06s-1.36,0-2.17-.06a14.83,14.83,0,0,1-2.3-.32Z"/><rect class="cls-6" x="69.36" y="286.98" width="217.1" height="85.22" rx="1.82"/><path d="M118.35,345.11a29.67,29.67,0,0,1-.38-4.66,31,31,0,0,1,.38-4.73,29.9,29.9,0,0,1,4.67-.38,31.05,31.05,0,0,1,4.73.38,29.37,29.37,0,0,1,.38,4.67,28.89,28.89,0,0,1-.38,4.72,28.51,28.51,0,0,1-9.4,0Z"/><path d="M150.76,345.88a17.28,17.28,0,0,1-7-1.31,13.3,13.3,0,0,1-4.92-3.64,16,16,0,0,1-2.94-5.46,22.4,22.4,0,0,1-1-6.78,23,23,0,0,1,1-6.84,15.85,15.85,0,0,1,2.94-5.53,13.59,13.59,0,0,1,4.92-3.67,16.78,16.78,0,0,1,7-1.34,17.06,17.06,0,0,1,7,1.34,13.82,13.82,0,0,1,5,3.67,15.22,15.22,0,0,1,2.94,5.53,23.66,23.66,0,0,1,1,6.84,23.05,23.05,0,0,1-1,6.78,15.32,15.32,0,0,1-2.94,5.46,13.52,13.52,0,0,1-5,3.64A17.57,17.57,0,0,1,150.76,345.88Zm0-6.9a5.5,5.5,0,0,0,5.14-2.66c1-1.76,1.57-4.31,1.57-7.63s-.53-5.87-1.57-7.64a5.51,5.51,0,0,0-5.14-2.65,5.45,5.45,0,0,0-5.08,2.65q-1.58,2.65-1.57,7.64c0,3.32.52,5.87,1.57,7.63A5.44,5.44,0,0,0,150.76,339Z"/><path d="M173.83,312.07c.64-.12,1.25-.22,1.82-.28a15.76,15.76,0,0,1,1.89-.1,13.1,13.1,0,0,1,1.88.13c.62.08,1.22.19,1.82.31a3.51,3.51,0,0,1,.35.94c.11.4.21.82.29,1.27s.16.89.23,1.34l.15,1.12a16.59,16.59,0,0,1,3.46-3.55,8.16,8.16,0,0,1,5.11-1.56c.42,0,.92,0,1.47.06a5.51,5.51,0,0,1,1.21.2,10.86,10.86,0,0,1,.19,1.46c.05.56.07,1.13.07,1.73s0,1.51-.1,2.37a16.72,16.72,0,0,1-.35,2.43,8.34,8.34,0,0,0-1.56-.13H190.7a14.88,14.88,0,0,0-2.43.22,5.54,5.54,0,0,0-2.55,1.18,7.08,7.08,0,0,0-2,2.88,14.43,14.43,0,0,0-.8,5.36v15.73a19.72,19.72,0,0,1-2.3.25c-.76.05-1.51.07-2.23.07s-1.46,0-2.21-.07a22,22,0,0,1-2.33-.25Z"/><path d="M218.05,339.62q5.82.13,8.57,2.59A9.81,9.81,0,0,1,228,354.09a12.23,12.23,0,0,1-3.83,3.74,19.59,19.59,0,0,1-5.76,2.37,33,33,0,0,1-13.67.22,13.72,13.72,0,0,1-4.38-1.69,6.36,6.36,0,0,1-2.43-2.69,8.27,8.27,0,0,1-.74-3.51,7.71,7.71,0,0,1,1.38-4.73,12.77,12.77,0,0,1,3.68-3.26,7.21,7.21,0,0,1-2.34-2.21A6,6,0,0,1,199,339a7,7,0,0,1,1-4,11.52,11.52,0,0,1,3-2.94,11.25,11.25,0,0,1-3.45-3.9,10.77,10.77,0,0,1-1.21-5.11,11.2,11.2,0,0,1,1-4.64,10.48,10.48,0,0,1,2.78-3.71,13.38,13.38,0,0,1,4.44-2.46,18.33,18.33,0,0,1,5.88-.89,16.88,16.88,0,0,1,5.88,1,14.32,14.32,0,0,1,4.47,2.53,7.55,7.55,0,0,1,3-2.4,12.17,12.17,0,0,1,4.86-.8c.08.55.15,1.09.22,1.63A15.06,15.06,0,0,1,231,315c0,.69,0,1.37-.07,2.05a20.46,20.46,0,0,1-.25,2.11h-5.18a8.14,8.14,0,0,1,.83,3.9,11.5,11.5,0,0,1-.93,4.63,9.9,9.9,0,0,1-2.71,3.67,13.41,13.41,0,0,1-4.38,2.43,17.79,17.79,0,0,1-5.85.9,19.42,19.42,0,0,1-4.92-.58,3,3,0,0,0-1.34,1.5,5,5,0,0,0-.26,1.51,2.15,2.15,0,0,0,.67,1.65,4.25,4.25,0,0,0,2.72.71Zm-8.18,6.64a5.45,5.45,0,0,0-2.33.33,3.91,3.91,0,0,0-1.47,1,3.67,3.67,0,0,0-.77,1.35,4.85,4.85,0,0,0-.22,1.44,3.28,3.28,0,0,0,1.82,3.28,11.48,11.48,0,0,0,4.89.87,14.16,14.16,0,0,0,6.49-1.28,3.85,3.85,0,0,0,2.46-3.45,4.32,4.32,0,0,0-.16-1.21,2.53,2.53,0,0,0-.61-1.06,3.33,3.33,0,0,0-1.25-.8,5.92,5.92,0,0,0-2.14-.32Zm2.62-17.44a4.6,4.6,0,0,0,3.87-1.54,6.71,6.71,0,0,0,1.18-4.21,6.87,6.87,0,0,0-1.18-4.25,4.53,4.53,0,0,0-3.87-1.57,4.69,4.69,0,0,0-4,1.57,6.75,6.75,0,0,0-1.21,4.25,6.59,6.59,0,0,0,1.21,4.21A4.76,4.76,0,0,0,212.49,328.82Z"/><rect class="cls-7" x="117.62" y="170.85" width="295.88" height="116.13" rx="1.82"/><path d="M169.69,250.61a39.31,39.31,0,0,1-.52-6.35,41.2,41.2,0,0,1,.52-6.45,39.52,39.52,0,0,1,6.36-.52,41,41,0,0,1,6.44.52,40.71,40.71,0,0,1,.53,6.36,39.87,39.87,0,0,1-.53,6.44,40.51,40.51,0,0,1-6.36.53A40.06,40.06,0,0,1,169.69,250.61Z"/><path d="M225,240a18.42,18.42,0,0,1,1.74,4,19.06,19.06,0,0,1,.7,5.44,26.94,26.94,0,0,1-6.54,1.79,50,50,0,0,1-6.35.39,25.14,25.14,0,0,1-9.85-1.78,19,19,0,0,1-6.92-4.93,20.85,20.85,0,0,1-4.14-7.44,32.25,32.25,0,0,1,0-18.6,21.29,21.29,0,0,1,4.09-7.49,19,19,0,0,1,6.84-5,23.05,23.05,0,0,1,9.49-1.83c1.28,0,2.45,0,3.53.09a24.75,24.75,0,0,1,3.09.34,29,29,0,0,1,3,.7q1.47.44,3.3,1.14a21.8,21.8,0,0,1-.52,4.48,20,20,0,0,1-1.65,4.75,24.82,24.82,0,0,0-9.06-1.48q-5.4,0-8.15,3.52t-2.74,10.06q0,7.06,3,10.28a10.35,10.35,0,0,0,8,3.22c.88,0,1.67,0,2.4,0a16.68,16.68,0,0,0,2.14-.22,15,15,0,0,0,2.13-.52C223.15,240.63,224,240.34,225,240Z"/><path d="M253.92,251.66a23.67,23.67,0,0,1-9.54-1.78,18.1,18.1,0,0,1-6.71-5,21.66,21.66,0,0,1-4-7.45,30.42,30.42,0,0,1-1.35-9.23,31.35,31.35,0,0,1,1.35-9.32,21.5,21.5,0,0,1,4-7.53,18.53,18.53,0,0,1,6.71-5,23,23,0,0,1,9.54-1.83,23.32,23.32,0,0,1,9.58,1.83,18.83,18.83,0,0,1,6.79,5,20.56,20.56,0,0,1,4,7.53,32.35,32.35,0,0,1,1.3,9.32,31.39,31.39,0,0,1-1.3,9.23,20.7,20.7,0,0,1-4,7.45,18.4,18.4,0,0,1-6.79,5A24,24,0,0,1,253.92,251.66Zm0-9.41c3.25,0,5.58-1.2,7-3.61s2.13-5.88,2.13-10.41-.71-8-2.13-10.41-3.76-3.61-7-3.61-5.5,1.2-6.93,3.61-2.13,5.88-2.13,10.41.71,8,2.13,10.41S250.72,242.25,253.92,242.25Z"/><path d="M285.36,205.58c.81-.17,1.62-.3,2.44-.39a24.67,24.67,0,0,1,2.7-.13,22.51,22.51,0,0,1,2.61.13c.75.09,1.54.22,2.35.39a5.06,5.06,0,0,1,.48,1.27c.14.55.28,1.13.39,1.74s.22,1.21.31,1.78.16,1.08.22,1.49a13.94,13.94,0,0,1,1.82-2.62,13.74,13.74,0,0,1,2.7-2.35,14.8,14.8,0,0,1,3.53-1.7,14,14,0,0,1,4.4-.65q10.53,0,13.5,8a17.21,17.21,0,0,1,4.92-5.61,13,13,0,0,1,8.06-2.4q7.66,0,11.28,4.22t3.61,13.2v28.65a36.35,36.35,0,0,1-12.37,0V225.18a17.76,17.76,0,0,0-1.17-7.23c-.79-1.68-2.37-2.53-4.75-2.53a9.92,9.92,0,0,0-2.91.44,6.25,6.25,0,0,0-2.62,1.61,8.79,8.79,0,0,0-1.92,3.31,17.37,17.37,0,0,0-.74,5.54v24.29a36.3,36.3,0,0,1-12.36,0V225.18a17.74,17.74,0,0,0-1.18-7.23c-.78-1.68-2.37-2.53-4.75-2.53a10.51,10.51,0,0,0-3,.44,5.92,5.92,0,0,0-2.66,1.7,9.1,9.1,0,0,0-1.87,3.53,20.79,20.79,0,0,0-.7,5.92v23.6a36.3,36.3,0,0,1-12.36,0Z"/><path class="cls-8" d="M262.14,503.72h0a7.41,7.41,0,0,1-7.41-7.41V287h14.82V496.31A7.41,7.41,0,0,1,262.14,503.72Z"/><rect class="cls-3" x="317.12" y="130.9" width="25.49" height="25.49" rx="1.44"/><rect class="cls-3" x="102.89" y="359.45" width="25.49" height="25.49" rx="1.44"/><path class="cls-3" d="M248.91,89.87h0a7.66,7.66,0,0,1-7.65-7.66h0a7.65,7.65,0,0,1,7.65-7.65h0a7.65,7.65,0,0,1,7.66,7.65h0A7.66,7.66,0,0,1,248.91,89.87Z"/><path class="cls-3" d="M128.38,430.66h0a7.65,7.65,0,0,1-7.66-7.65h0a7.65,7.65,0,0,1,7.66-7.65h0A7.64,7.64,0,0,1,136,423h0A7.64,7.64,0,0,1,128.38,430.66Z"/><path class="cls-3" d="M484.37,384.57h0a7.66,7.66,0,0,1-7.66-7.66h0a7.66,7.66,0,0,1,7.66-7.66h0a7.66,7.66,0,0,1,7.65,7.66h0A7.66,7.66,0,0,1,484.37,384.57Z"/></g></g></svg>