<svg xmlns="http://www.w3.org/2000/svg" viewBox="0 0 1795.84 358.06"><g id="Capa_2" data-name="Capa 2"><g id="Capa_1-2" data-name="Capa 1"><path d="M59.08,212.53q-29.53,0-43.81-13.12T0,158.08a8.29,8.29,0,0,1,2.23-6.52,8.59,8.59,0,0,1,6.35-2.39,8.47,8.47,0,0,1,6.27,2.31,9.67,9.67,0,0,1,2.64,6.27q.66,20.79,9.9,29T59.08,195H106.6q23.43,0,32.59-9.16t9.16-32.26q0-23.43-9.16-32.59t-32.59-9.15H61.39q-29,0-42.57-13.53T5.29,55.94q0-28.87,13.45-42.4T61.06,0h46.2Q135,0,148.43,12.38t14.44,38.94a7.6,7.6,0,0,1-2.07,6.35,8.78,8.78,0,0,1-6.51,2.4,8.25,8.25,0,0,1-6.11-2.31,9.67,9.67,0,0,1-2.64-6.27q-.66-19-9.24-26.57t-29-7.59H61.06q-21.62,0-30,8.5T22.62,55.94q0,21.61,8.49,30.11t30.28,8.5H106.6q30.69,0,44.88,14.27t14.19,44.8q0,30.52-14.19,44.72T106.6,212.53Z"/><path d="M217.27,212.69q-8.76,0-8.75-8.74V8.75q0-8.75,8.75-8.74H340.85q8.75,0,8.75,8.58,0,8.75-8.75,8.74h-115v79h76.06q8.74,0,8.75,8.58,0,8.74-8.75,8.74H225.85v81.68h115q8.75,0,8.75,8.58,0,8.75-8.75,8.74Z"/><polygon points="445.16 192.56 442.1 185.62 439.06 192.56 445.16 192.56"/><path d="M536.9,4.46a9,9,0,0,0-6.27-4q-6.93-1.65-9.57,5l-79,180.17,3.06,6.94h-6.1l3-6.94h0l-9.48,21.13q2.47,5.94,8.09,5.94h1.81q5.94,0,8.42-5.94l86-194.37Q538.88,7.59,536.9,4.46Z"/><path d="M588.54,212.69q-8.74,0-8.74-8.74V8.75Q579.8,0,588.54,0H712.13q8.75,0,8.74,8.58,0,8.75-8.74,8.74h-115v79h76.07q8.74,0,8.75,8.58,0,8.74-8.75,8.74H597.12v81.68h115q8.75,0,8.74,8.58,0,8.75-8.74,8.74Z"/><path d="M925.72,0Q917,0,917,8.75V179.56L781.18,5.12Q776.89,0,772.27,0q-8.74,0-8.74,8.74V204q0,8.75,8.74,8.74,8.58,0,8.58-8.74V33.14l136,174.44q4.13,5.11,8.91,5.11,8.58,0,8.58-8.74V8.75Q934.3,0,925.72,0Z"/><path d="M1108.78,212.69q-8.74,0-8.74-8.74V8.75Q1100,0,1108.78,0h119a8.6,8.6,0,0,1,6.35,2.22q2.24,2.24,2.23,6.52,0,8.58-8.58,8.58H1117.36v79h75.24q8.75,0,8.75,8.58,0,8.74-8.75,8.74h-75.24V204Q1117.36,212.7,1108.78,212.69Z"/><path d="M1334.83,212.69q-35.8,0-52.3-16.5t-16.5-52.3V68.65q0-36.14,16.5-52.56T1334.5,0h39.93q35.8,0,52.22,16.5t16.42,52.3v75.08q0,35.81-16.42,52.3t-52.22,16.5Zm0-17.32h39.6q19,0,30.2-5a30.6,30.6,0,0,0,16.17-16.17q5-11.22,5-30.36V68.81q0-19-5-30.19a31,31,0,0,0-16.17-16.26q-11.24-5-30.2-5H1334.5q-19-.16-30.11,4.7A30.28,30.28,0,0,0,1288.3,38.2q-5,11.31-5,30.45v75.24q0,19.14,5,30.36a30.6,30.6,0,0,0,16.17,16.17Q1315.69,195.37,1334.83,195.37Z"/><path d="M1791.26,213.19a9.67,9.67,0,0,1-6.68,1.32,8.27,8.27,0,0,1-5.2-4.13l-54.12-86.13h-60.55V204q0,8.75-8.58,8.74-8.75,0-8.75-8.74V8.75q0-8.75,8.75-8.74h77.22q28.22,0,42.65,14.52t14.44,42.73v9.9q0,24.91-11.39,39.11t-33.66,17.32l48.68,77.55Q1798.69,208.73,1791.26,213.19ZM1664.71,106.93h68.64q20.79,0,30.28-9.49t9.48-30.28v-9.9q0-21-9.48-30.44t-30.28-9.49h-68.64Z"/><path d="M523.74,0H449.16V17.36H528.8l2.53-5.67A8.31,8.31,0,0,0,523.74,0Z"/><path d="M461.81,0H398.7a7.81,7.81,0,0,0-5.47,2.6,7.79,7.79,0,0,0-1.8,6,7.92,7.92,0,0,0,1.92,6.25,7.8,7.8,0,0,0,5.35,2.44h63.11Z"/><path d="M1600.42,2.4A8.33,8.33,0,0,0,1594.15,0a8.63,8.63,0,0,0-6.36,2.39,8.59,8.59,0,0,0-2.39,6.35v73c0,.13,0,.26,0,.4v45.6h-94.33V8.75a8.74,8.74,0,0,0-2.31-6.35A8.33,8.33,0,0,0,1482.47,0a8.59,8.59,0,0,0-6.35,2.39,8.55,8.55,0,0,0-2.39,6.35V134.12a11,11,0,0,0,11,11h100.64v11.63h0v50.47a7.6,7.6,0,0,0,8.64,7.27,8,8,0,0,0,6.25-1.92,7.84,7.84,0,0,0,2.44-5.35V8.75A8.74,8.74,0,0,0,1600.42,2.4Z"/><path d="M201.18,358.06c-2.32,0-3.8-1-4.42-2.9l-24.14-70.54c-.79-2.38-.06-3.91,2.21-4.59s3.68.05,4.42,2.21l24.65,71.91h-4.42l23.63-70.21a3.88,3.88,0,0,1,4.08-2.89,3.78,3.78,0,0,1,3.91,2.89l22.1,70.21h-4.76l26.18-71.91c.91-2.33,2.44-3.06,4.59-2.21s3,2.38,2.21,4.59l-26.35,70.54a4.3,4.3,0,0,1-4.42,2.9q-3.74,0-4.59-2.9l-19.89-62.89h1.62l-22,62.89a3.49,3.49,0,0,1-1.87,2.39A7.27,7.27,0,0,1,201.18,358.06Z"/><path d="M366.59,321.51v7q0,12.31,5.06,17.38t17.55,5.05h13.94q11.48,0,16.57-3.14T425.58,337a4.24,4.24,0,0,1,1.06-2.68,3.63,3.63,0,0,1,2.68-.89,3.46,3.46,0,0,1,2.63,1,3.36,3.36,0,0,1,.77,2.77q-.86,10.78-8.08,15.85t-21.5,5.06H389.2q-15.56,0-22.65-7.1t-7.1-22.48v-19q0-15.74,7.1-22.83t22.65-6.92h13.94q15.56,0,22.65,7.09t7.1,22.66v8.5q0,3.57-3.57,3.57Zm22.61-34.68q-12.49-.18-17.55,4.88t-5.06,17.73v4.93h59.16v-4.93q0-12.49-5.06-17.56t-17.55-5.05Z"/><path d="M529.45,358.06q-3.57,0-3.57-3.57V244.33q0-3.57,3.57-3.57t3.57,3.57v48.11a22.61,22.61,0,0,1,10.84-9.65q7.26-3.27,19.25-3.27h6.46q15.55,0,22.65,7.09t7.1,22.66v19q0,15.56-7.1,22.65t-22.65,7.1h-6.46q-12,0-19.25-3.28A22.59,22.59,0,0,1,533,345.14v9.35Q533,358.06,529.45,358.06Zm33.66-7.15h6.46q12.49,0,17.55-5.05t5.06-17.55v-19q0-12.5-5.06-17.56t-17.55-5h-6.46q-13.86,0-22,4.58A15,15,0,0,0,533,305.19V332.9q.16,9,8.29,13.51T563.11,350.91Z"/><path d="M812.16,357.89q-10.29,0-15.56-4.47t-6.2-13.72A3.22,3.22,0,0,1,794,336a3.5,3.5,0,0,1,2.59.89,3.93,3.93,0,0,1,1,2.68q.68,6.2,4,8.71t10.59,2.5H840c5.61,0,9.47-1.08,11.6-3.27s3.19-6,3.19-11.51-1.07-9.41-3.19-11.56-6-3.24-11.6-3.24H812.5q-10.71,0-15.81-5t-5.1-15.72q0-10.89,5.1-15.9t15.81-5h26.69q19,0,20.57,17a3.15,3.15,0,0,1-.68,2.76,3.61,3.61,0,0,1-2.72,1,3.49,3.49,0,0,1-2.64-.9,4.78,4.78,0,0,1-1.1-2.67q-.51-5.61-3.57-7.82t-9.86-2.21H812.5q-7.74,0-10.76,3t-3,10.8q0,7.65,3,10.62t10.76,3H840q11.38,0,16.66,5.27T862,336q0,11.3-5.27,16.61T840,357.89Z"/><path d="M983.17,358.06q-15.3,0-22.26-7t-7-22.09V286.83H943.22c-2.38,0-3.56-1.19-3.56-3.57s1.18-3.57,3.56-3.57h10.71V259.46q0-3.57,3.57-3.57t3.57,3.57v20.23H983q3.57,0,3.57,3.57T983,286.83H961.07V329q0,12.24,4.89,17.08t17.21,4.84a3.75,3.75,0,0,1,3,.94,4.07,4.07,0,0,1,.76,2.64C986.91,356.87,985.67,358.06,983.17,358.06Z"/><path d="M1139.74,279.69q3.57,0,3.57,3.57v71.23q0,3.57-3.57,3.57t-3.57-3.57v-9.86q-7.73,13.42-30.09,13.43h-4.76q-15.55,0-22.65-7.1t-7.1-22.65V283.26q0-3.57,3.57-3.57t3.57,3.57v45.05q0,12.49,5.06,17.55t17.55,5.05h4.76q14.12,0,21.68-4.8t8.41-14.91V283.26Q1136.17,279.69,1139.74,279.69Z"/><path d="M1266.05,358.06q-15.55,0-22.65-7.1t-7.1-22.65V309.44q0-15.56,7.1-22.66t22.65-7.09h36.55V244.33q0-3.57,3.57-3.57t3.57,3.57V354.49q0,3.57-3.57,3.57t-3.57-3.57v-9.35a22.59,22.59,0,0,1-10.84,9.64q-7.26,3.29-19.25,3.28Zm0-7.15h6.46q13.93,0,22-4.63a15,15,0,0,0,8.07-13.89V286.83h-36.55q-12.49,0-17.55,5.05t-5.06,17.56v18.87q0,12.49,5.06,17.55T1266.05,350.91Z"/><path d="M1423.9,263.71q-5.09,0-5.08-5.29V255q0-5.08,5.08-5.08h3.45q5.09,0,5.08,5.08v3.45q0,5.29-5.08,5.29Zm1.78,94.35q-3.57,0-3.57-3.57V283.26q0-3.57,3.57-3.57t3.57,3.57v71.23Q1429.25,358.06,1425.68,358.06Z"/><path d="M1571.2,358.06q-15.56,0-22.66-7.1t-7.09-22.48v-19q0-15.74,7.09-22.83t22.66-6.92h13.94q15.55,0,22.65,7.09t7.1,22.66v18.87q0,15.56-7.1,22.65t-22.65,7.1Zm-22.61-29.58q0,12.31,5.06,17.38t17.55,5.05h13.94q12.49,0,17.55-5.05t5.06-17.55V309.44q0-12.49-5.06-17.56t-17.55-5.05H1571.2q-8.34-.09-13.3,2.08a13.33,13.33,0,0,0-7.15,7.14q-2.16,5-2.16,13.39Z"/><path d="M71.2,352.79c-1.47,2.46-3.4,3-5.8,1.6L6.2,321a5.63,5.63,0,0,1-3-5.4,5.3,5.3,0,0,1,3-5l59.2-33q3.6-2.1,5.8,1.6c1.4,2.4.86,4.33-1.6,5.8l-57.4,31.8v-2.2L69.6,347C72.06,348.46,72.6,350.39,71.2,352.79Z"/><path d="M1725.31,347l57.4-32.4v2.2l-57.4-31.8q-3.7-2.21-1.6-5.8c1.46-2.47,3.4-3,5.8-1.6l59.2,33a5.3,5.3,0,0,1,3,5,5.63,5.63,0,0,1-3,5.4l-59.2,33.4c-2.4,1.4-4.34.86-5.8-1.6S1722.84,348.46,1725.31,347Z"/></g></g></svg>