<svg xmlns="http://www.w3.org/2000/svg" viewBox="0 0 1795.84 214.67"><defs><style>.cls-1{fill:#fff;}</style></defs><g id="Capa_2" data-name="Capa 2"><g id="Capa_1-2" data-name="Capa 1"><path class="cls-1" d="M59.08,212.53q-29.53,0-43.81-13.12T0,158.08a8.29,8.29,0,0,1,2.23-6.52,8.59,8.59,0,0,1,6.35-2.39,8.47,8.47,0,0,1,6.27,2.31,9.67,9.67,0,0,1,2.64,6.27q.66,20.79,9.9,29T59.08,195H106.6q23.43,0,32.59-9.16t9.16-32.26q0-23.43-9.16-32.59t-32.59-9.15H61.39q-29,0-42.57-13.53T5.29,55.94q0-28.87,13.45-42.4T61.06,0h46.2Q135,0,148.43,12.38t14.44,38.94a7.6,7.6,0,0,1-2.07,6.35,8.78,8.78,0,0,1-6.51,2.4,8.25,8.25,0,0,1-6.11-2.31,9.67,9.67,0,0,1-2.64-6.27q-.66-19-9.24-26.57t-29-7.59H61.06q-21.62,0-30,8.5T22.62,55.94q0,21.61,8.49,30.11t30.28,8.5H106.6q30.69,0,44.88,14.27t14.19,44.8q0,30.52-14.19,44.72T106.6,212.53Z"/><path class="cls-1" d="M217.27,212.69q-8.76,0-8.75-8.74V8.75q0-8.75,8.75-8.74H340.85q8.75,0,8.75,8.58,0,8.75-8.75,8.74h-115v79h76.06q8.74,0,8.75,8.58,0,8.74-8.75,8.74H225.85v81.68h115q8.75,0,8.75,8.58,0,8.75-8.75,8.74Z"/><polygon class="cls-1" points="445.16 192.56 442.1 185.62 439.06 192.56 445.16 192.56"/><path class="cls-1" d="M536.9,4.46a9,9,0,0,0-6.27-4q-6.93-1.65-9.57,5l-79,180.17,3.06,6.94h-6.1l3-6.94h0l-9.48,21.13q2.47,5.94,8.09,5.94h1.81q5.94,0,8.42-5.94l86-194.37Q538.88,7.59,536.9,4.46Z"/><path class="cls-1" d="M588.54,212.69q-8.74,0-8.74-8.74V8.75Q579.8,0,588.54,0H712.13q8.75,0,8.74,8.58,0,8.75-8.74,8.74h-115v79h76.07q8.74,0,8.75,8.58,0,8.74-8.75,8.74H597.12v81.68h115q8.75,0,8.74,8.58,0,8.75-8.74,8.74Z"/><path class="cls-1" d="M925.72,0Q917,0,917,8.75V179.56L781.18,5.12Q776.89,0,772.27,0q-8.74,0-8.74,8.74V204q0,8.75,8.74,8.74,8.58,0,8.58-8.74V33.14l136,174.44q4.13,5.11,8.91,5.11,8.58,0,8.58-8.74V8.75Q934.3,0,925.72,0Z"/><path class="cls-1" d="M1108.78,212.69q-8.74,0-8.74-8.74V8.75Q1100,0,1108.78,0h119a8.6,8.6,0,0,1,6.35,2.22q2.24,2.24,2.23,6.52,0,8.58-8.58,8.58H1117.36v79h75.24q8.75,0,8.75,8.58,0,8.74-8.75,8.74h-75.24V204Q1117.36,212.7,1108.78,212.69Z"/><path class="cls-1" d="M1334.83,212.69q-35.8,0-52.3-16.5t-16.5-52.3V68.65q0-36.14,16.5-52.56T1334.5,0h39.93q35.8,0,52.22,16.5t16.42,52.3v75.08q0,35.81-16.42,52.3t-52.22,16.5Zm0-17.32h39.6q19,0,30.2-5a30.6,30.6,0,0,0,16.17-16.17q5-11.22,5-30.36V68.81q0-19-5-30.19a31,31,0,0,0-16.17-16.26q-11.24-5-30.2-5H1334.5q-19-.16-30.11,4.7A30.28,30.28,0,0,0,1288.3,38.2q-5,11.31-5,30.45v75.24q0,19.14,5,30.36a30.6,30.6,0,0,0,16.17,16.17Q1315.69,195.37,1334.83,195.37Z"/><path class="cls-1" d="M1791.26,213.19a9.67,9.67,0,0,1-6.68,1.32,8.27,8.27,0,0,1-5.2-4.13l-54.12-86.13h-60.55V204q0,8.75-8.58,8.74-8.75,0-8.75-8.74V8.75q0-8.75,8.75-8.74h77.22q28.22,0,42.65,14.52t14.44,42.73v9.9q0,24.91-11.39,39.11t-33.66,17.32l48.68,77.55Q1798.69,208.73,1791.26,213.19ZM1664.71,106.93h68.64q20.79,0,30.28-9.49t9.48-30.28v-9.9q0-21-9.48-30.44t-30.28-9.49h-68.64Z"/><path class="cls-1" d="M523.74,0H449.16V17.36H528.8l2.53-5.67A8.31,8.31,0,0,0,523.74,0Z"/><path class="cls-1" d="M461.81,0H398.7a7.81,7.81,0,0,0-5.47,2.6,7.79,7.79,0,0,0-1.8,6,7.92,7.92,0,0,0,1.92,6.25,7.8,7.8,0,0,0,5.35,2.44h63.11Z"/><path class="cls-1" d="M1600.42,2.4A8.33,8.33,0,0,0,1594.15,0a8.63,8.63,0,0,0-6.36,2.39,8.59,8.59,0,0,0-2.39,6.35v73c0,.13,0,.26,0,.4v45.6h-94.33V8.75a8.74,8.74,0,0,0-2.31-6.35A8.33,8.33,0,0,0,1482.47,0a8.59,8.59,0,0,0-6.35,2.39,8.55,8.55,0,0,0-2.39,6.35V134.12a11,11,0,0,0,11,11h100.64v11.63h0v50.47a7.6,7.6,0,0,0,8.64,7.27,8,8,0,0,0,6.25-1.92,7.84,7.84,0,0,0,2.44-5.35V8.75A8.74,8.74,0,0,0,1600.42,2.4Z"/></g></g></svg>