<svg xmlns="http://www.w3.org/2000/svg" viewBox="0 0 600.46 600"><defs><style>.cls-1{fill:#007884;}.cls-2{fill:#00484c;opacity:0.52;}.cls-3{fill:none;}.cls-4{fill:#fff;}.cls-5{fill:#e2e2e2;}.cls-6{fill:#073b5b;}.cls-7{fill:#ef433f;}.cls-8{fill:#b3322f;}.cls-9{fill:#f4d34a;}.cls-10{fill:#f4a82d;}.cls-11{fill:#70ccda;}.cls-12{fill:#10aac1;}</style></defs><g id="Capa_2" data-name="Capa 2"><g id="Capa_1-2" data-name="Capa 1"><rect class="cls-1" x="0.48" width="599.96" height="600"/><polygon class="cls-2" points="0.48 0 0.48 600 600.45 600 0.48 0"/><polyline class="cls-2" points="0.47 599.98 600.47 0.02 0.47 0.02"/><rect class="cls-3" width="600" height="600"/><path class="cls-4" d="M137.78,378.9a11.55,11.55,0,0,0,11.55,11.55H447.24a11.55,11.55,0,0,0,11.54-11.55V355.81h-321Z"/><path d="M447.24,145.66H149.33a11.55,11.55,0,0,0-11.55,11.54V339.26h321V157.2A11.54,11.54,0,0,0,447.24,145.66Zm.57,191.68H148.75V164.13H447.81Z"/><rect x="137.78" y="339.26" width="321" height="16.55"/><path d="M268.84,439H240a13.28,13.28,0,0,0-13.28,13.27v2.12H369.87v-2.12A13.27,13.27,0,0,0,356.6,439H268.84Z"/><polygon class="cls-4" points="148.75 337.34 164.37 328.29 158.18 328.29 158.18 300.77 211.89 300.77 228.5 291.15 158.18 291.15 158.18 281.52 245.11 281.52 261.73 271.9 158.18 271.9 158.18 262.28 278.35 262.28 294.96 252.66 158.18 252.66 158.18 243.04 311.57 243.04 333.65 230.25 158.18 230.25 158.18 181.63 417.6 181.63 447.81 164.13 148.75 164.13 148.75 337.34"/><path class="cls-5" d="M438,181.63v48.62H333.65L311.57,243H438v9.62H295l-16.62,9.62h14.74v9.62H261.73l-16.62,9.63h48v9.62H228.5l-16.61,9.62h81.19v27.52H164.37l-15.62,9H447.81V164.13l-30.21,17.5Zm0,146.66H303.09V300.77H438Zm0-37.14H303.09v-9.62H438Zm0-19.25H303.09v-9.62H438Z"/><polygon points="317.33 438.95 327.72 438.95 327.72 390.45 268.84 390.45 317.33 438.95"/><polygon class="cls-6" points="268.84 390.45 268.84 438.95 317.33 438.95 268.84 390.45"/><polygon class="cls-7" points="158.18 181.63 158.18 230.25 333.65 230.25 417.6 181.63 158.18 181.63"/><polygon class="cls-8" points="438 181.63 417.6 181.63 333.65 230.25 438 230.25 438 181.63"/><polygon class="cls-9" points="158.18 243.04 158.18 252.66 294.96 252.66 311.57 243.04 158.18 243.04"/><polygon class="cls-10" points="438 243.04 311.57 243.04 294.96 252.66 438 252.66 438 243.04"/><polygon class="cls-11" points="158.18 262.28 158.18 271.9 261.73 271.9 278.35 262.28 158.18 262.28"/><polygon class="cls-12" points="293.08 262.28 278.35 262.28 261.73 271.9 293.08 271.9 293.08 262.28"/><rect class="cls-12" x="303.09" y="262.28" width="134.91" height="9.62"/><polygon class="cls-11" points="158.18 281.52 158.18 291.15 228.5 291.15 245.11 281.52 158.18 281.52"/><polygon class="cls-12" points="293.08 281.52 245.11 281.52 228.5 291.15 293.08 291.15 293.08 281.52"/><rect class="cls-12" x="303.09" y="281.53" width="134.91" height="9.62"/><polygon class="cls-9" points="158.18 300.77 158.18 328.29 164.37 328.29 211.89 300.77 158.18 300.77"/><polygon class="cls-10" points="293.08 300.77 211.89 300.77 164.37 328.29 293.08 328.29 293.08 300.77"/><rect class="cls-12" x="303.09" y="300.77" width="134.91" height="27.52"/><path d="M176.57,308.4H120.93a11.15,11.15,0,0,0-11.15,11.15V443.2a11.15,11.15,0,0,0,11.15,11.14h55.64a11.15,11.15,0,0,0,11.15-11.14V319.55A11.15,11.15,0,0,0,176.57,308.4Zm6.53,53.1v79.65H114.69V321.59H183.1Z"/><path class="cls-4" d="M114.69,401.24,132.33,391H120.08v-9.62H148.9l16.39-9.52H120.08v-9.63h56.19v3.25l6.83-4V321.59H114.69Zm5.39-72.95h56.19V352.6H120.08Z"/><path class="cls-5" d="M176.27,371.85h-11l-16.39,9.52h27.37V391H132.33l-17.64,10.25v39.91H183.1V361.5l-6.83,4Zm0,57.63H120.08v-9.62h56.19Zm0-19.24H120.08v-9.62h56.19Z"/><rect class="cls-7" x="120.08" y="328.29" width="56.19" height="24.31"/><polygon class="cls-9" points="176.27 362.22 120.08 362.22 120.08 371.85 165.29 371.85 176.27 365.47 176.27 362.22"/><polygon class="cls-10" points="176.27 365.47 165.29 371.85 176.27 371.85 176.27 365.47"/><polygon class="cls-11" points="120.08 381.37 120.08 390.99 132.33 390.99 148.9 381.37 120.08 381.37"/><polygon class="cls-12" points="176.27 381.37 148.9 381.37 132.33 390.99 176.27 390.99 176.27 381.37"/><rect class="cls-12" x="120.08" y="400.62" width="56.19" height="9.62"/><rect class="cls-12" x="120.08" y="419.86" width="56.19" height="9.62"/><path d="M479.15,308.4H310.25a12,12,0,0,0-12,12v122a12,12,0,0,0,12,12h168.9a12,12,0,0,0,12-12v-122A12,12,0,0,0,479.15,308.4Zm3.3,22.16V441.15H307.52V321.59H482.45Z"/><polygon class="cls-4" points="307.52 432.18 314.35 428.21 314.35 419.51 329.34 419.51 346.23 409.69 314.35 409.69 314.35 400.07 362.8 400.07 378.99 390.67 314.35 390.67 314.35 381.04 390.66 381.04 390.66 383.89 411.38 371.85 314.35 371.85 314.35 362.22 427.94 362.22 444.51 352.6 314.35 352.6 314.35 328.29 475.72 328.29 475.72 334.47 482.45 330.56 482.45 321.59 307.52 321.59 307.52 432.18"/><path class="cls-5" d="M475.72,352.6H444.51l-16.57,9.62h47.78v9.63H411.38l-20.72,12v6.78H379l-16.19,9.4h27.86v9.62H346.23l-16.89,9.82h61.32v9.62H314.35v-.92l-6.83,4v9H482.45V330.56l-6.73,3.91Zm0,76.53H399.41V400.07h76.31Zm0-38.46H399.41V381h76.31Z"/><polygon class="cls-7" points="475.72 328.29 314.35 328.29 314.35 352.6 444.51 352.6 475.72 334.47 475.72 328.29"/><polygon class="cls-8" points="475.72 334.47 444.51 352.6 475.72 352.6 475.72 334.47"/><polygon class="cls-9" points="314.35 362.22 314.35 371.85 411.38 371.85 427.94 362.22 314.35 362.22"/><polygon class="cls-10" points="475.72 362.22 427.94 362.22 411.38 371.85 475.72 371.85 475.72 362.22"/><polygon class="cls-11" points="390.66 381.04 314.35 381.04 314.35 390.67 378.99 390.67 390.66 383.89 390.66 381.04"/><polygon class="cls-12" points="390.66 383.89 378.99 390.67 390.66 390.67 390.66 383.89"/><rect class="cls-12" x="399.41" y="381.04" width="76.31" height="9.62"/><polygon class="cls-11" points="314.35 400.07 314.35 409.69 346.23 409.69 362.8 400.07 314.35 400.07"/><polygon class="cls-12" points="390.66 400.07 362.8 400.07 346.23 409.69 390.66 409.69 390.66 400.07"/><rect class="cls-12" x="399.41" y="400.07" width="76.31" height="29.06"/><polygon class="cls-11" points="314.35 419.51 314.35 428.21 329.34 419.51 314.35 419.51"/><polygon class="cls-12" points="390.66 429.13 390.66 419.51 329.34 419.51 314.35 428.21 314.35 429.13 390.66 429.13"/></g></g></svg>