<svg xmlns="http://www.w3.org/2000/svg" viewBox="0 0 600 600"><defs><style>.cls-1{fill:#8dd6e1;}.cls-2{fill:#609196;opacity:0.52;}.cls-3{fill:#c6ebf0;}.cls-4{fill:#10aac1;}.cls-5{fill:#b3322f;}.cls-6{fill:#f4a82d;}.cls-7{fill:#fff;}.cls-8{fill:#f4d34a;}.cls-9{fill:#ef433f;}</style></defs><g id="Capa_2" data-name="Capa 2"><g id="Capa_2-2" data-name="Capa 2"><rect class="cls-1" width="600" height="600"/><polygon class="cls-2" points="0 0 0 600 600 600 0 0"/><polyline class="cls-2" points="0 600 600 0 0 0"/><rect class="cls-3" x="71.55" y="226.67" width="456.89" height="225.78"/><rect class="cls-1" x="90.89" y="243.78" width="419.56" height="48.89"/><rect class="cls-1" x="90.89" y="306.67" width="419.56" height="14"/><rect class="cls-1" x="90.89" y="334.67" width="419.56" height="14"/><polygon class="cls-1" points="90.89 362.67 90.89 376.67 90.89 390.67 90.89 404.67 242.33 404.67 242.33 390.67 242.33 376.67 242.33 362.67 90.89 362.67"/><polygon class="cls-1" points="359 362.67 359 376.67 359 390.67 359 404.67 510.44 404.67 510.44 390.67 510.44 376.67 510.44 362.67 359 362.67"/><rect class="cls-1" x="90.89" y="418.67" width="419.56" height="14"/><path class="cls-4" d="M75,190.22H525a3.46,3.46,0,0,1,3.46,3.46v33a0,0,0,0,1,0,0H71.55a0,0,0,0,1,0,0v-33A3.46,3.46,0,0,1,75,190.22Z"/><path class="cls-5" d="M257,363.55l-24.23-21.88-24.23,21.88h11V474a13.22,13.22,0,0,0,13.22,13.23h0A13.22,13.22,0,0,0,246,474V363.55Z"/><path class="cls-5" d="M450.37,426.55l-24.23-21.88-24.23,21.88h11V474a13.22,13.22,0,0,0,13.22,13.23h0A13.22,13.22,0,0,0,439.36,474V426.55Z"/><path class="cls-5" d="M200.37,458.89,176.14,437l-24.23,21.89h11V474a13.22,13.22,0,0,0,13.22,13.23h0A13.22,13.22,0,0,0,189.36,474V458.89Z"/><path class="cls-5" d="M396.51,314.55l-24.23-21.88-24.23,21.88h11V474a13.22,13.22,0,0,0,13.22,13.23h0A13.22,13.22,0,0,0,385.5,474V314.55Z"/><path class="cls-6" d="M306,94.33H294V39a6,6,0,0,1,6-6h0a6,6,0,0,1,6,6Z"/><path class="cls-7" d="M272,77h0a2.38,2.38,0,0,1-2.92-1.68L264,56.43a2.37,2.37,0,0,1,1.69-2.91h0a2.37,2.37,0,0,1,2.91,1.68l5.07,18.9A2.39,2.39,0,0,1,272,77Z"/><path class="cls-7" d="M223.52,105h0a2.4,2.4,0,0,1-3.37,0L206.31,91.17a2.37,2.37,0,0,1,0-3.36h0a2.37,2.37,0,0,1,3.36,0l13.85,13.84A2.38,2.38,0,0,1,223.52,105Z"/><path class="cls-7" d="M195.52,153.51h0a2.39,2.39,0,0,1-2.92,1.68l-18.9-5.07a2.37,2.37,0,0,1-1.68-2.91h0a2.37,2.37,0,0,1,2.91-1.69l18.91,5.07A2.38,2.38,0,0,1,195.52,153.51Z"/><path class="cls-7" d="M195.52,209.49h0a2.38,2.38,0,0,1-1.68,2.92l-18.91,5.07a2.37,2.37,0,0,1-2.91-1.69h0a2.37,2.37,0,0,1,1.68-2.91l18.9-5.07A2.39,2.39,0,0,1,195.52,209.49Z"/><path class="cls-7" d="M223.52,258h0a2.38,2.38,0,0,1,0,3.37l-13.85,13.84a2.37,2.37,0,0,1-3.36,0h0a2.37,2.37,0,0,1,0-3.36L220.15,258A2.4,2.4,0,0,1,223.52,258Z"/><path class="cls-7" d="M376.48,258h0a2.4,2.4,0,0,1,3.37,0l13.84,13.85a2.37,2.37,0,0,1,0,3.36h0a2.37,2.37,0,0,1-3.36,0l-13.85-13.84A2.38,2.38,0,0,1,376.48,258Z"/><path class="cls-7" d="M404.48,209.49h0a2.39,2.39,0,0,1,2.92-1.68l18.9,5.07a2.37,2.37,0,0,1,1.68,2.91h0a2.37,2.37,0,0,1-2.91,1.69l-18.91-5.07A2.38,2.38,0,0,1,404.48,209.49Z"/><path class="cls-7" d="M404.48,153.51h0a2.38,2.38,0,0,1,1.68-2.92l18.91-5.07a2.37,2.37,0,0,1,2.91,1.69h0a2.37,2.37,0,0,1-1.68,2.91l-18.9,5.07A2.39,2.39,0,0,1,404.48,153.51Z"/><path class="cls-7" d="M376.48,105h0a2.38,2.38,0,0,1,0-3.37l13.85-13.84a2.37,2.37,0,0,1,3.36,0h0a2.37,2.37,0,0,1,0,3.36L379.85,105A2.4,2.4,0,0,1,376.48,105Z"/><path class="cls-7" d="M328,77h0a2.39,2.39,0,0,1-1.68-2.92l5.07-18.9a2.37,2.37,0,0,1,2.91-1.68h0A2.37,2.37,0,0,1,336,56.43l-5.07,18.91A2.38,2.38,0,0,1,328,77Z"/><path class="cls-6" d="M261.61,103l-10.39,6L223.55,61.09a6,6,0,0,1,2.2-8.19h0a6,6,0,0,1,8.2,2.19Z"/><path class="cls-6" d="M227.51,132.72l-6,10.39-47.92-27.66a6,6,0,0,1-2.19-8.2h0a6,6,0,0,1,8.19-2.2Z"/><path class="cls-6" d="M212.83,175.5v12H157.5a6,6,0,0,1-6-6h0a6,6,0,0,1,6-6Z"/><path class="cls-6" d="M221.51,219.89l6,10.39L179.59,258a6,6,0,0,1-8.19-2.2h0a6,6,0,0,1,2.19-8.2Z"/><path class="cls-6" d="M251.22,254l10.39,6L234,307.91a6,6,0,0,1-8.2,2.19h0a6,6,0,0,1-2.2-8.19Z"/><path class="cls-6" d="M338.39,260l10.39-6,27.67,47.92a6,6,0,0,1-2.2,8.19h0a6,6,0,0,1-8.2-2.19Z"/><path class="cls-6" d="M372.49,230.28l6-10.39,47.92,27.66a6,6,0,0,1,2.19,8.2h0a6,6,0,0,1-8.19,2.2Z"/><path class="cls-6" d="M387.17,187.5v-12H442.5a6,6,0,0,1,6,6h0a6,6,0,0,1-6,6Z"/><path class="cls-6" d="M378.49,143.11l-6-10.39,47.92-27.67a6,6,0,0,1,8.19,2.2h0a6,6,0,0,1-2.19,8.2Z"/><path class="cls-6" d="M348.78,109l-10.39-6,27.66-47.92a6,6,0,0,1,8.2-2.19h0a6,6,0,0,1,2.2,8.19Z"/><circle class="cls-7" cx="300" cy="181.5" r="117.83" transform="translate(-40.47 265.29) rotate(-45)"/><polygon class="cls-8" points="279.94 119.94 235.62 126.38 267.69 157.64 260.12 201.78 299.76 180.94 299.76 79.78 279.94 119.94"/><polygon class="cls-6" points="363.9 126.38 319.58 119.94 299.76 79.78 299.76 180.94 339.4 201.78 331.83 157.64 363.9 126.38"/><path class="cls-9" d="M300,487.2h0a39.12,39.12,0,0,1-39.11-39.12V268.45H300Z"/><polygon class="cls-9" points="363.97 268.53 236.03 268.53 300 210.67 363.97 268.53"/><path class="cls-5" d="M300,268.45H260.89v16H300V487.2h0a39.12,39.12,0,0,0,39.11-39.12V268.45Z"/></g></g></svg>