<svg xmlns="http://www.w3.org/2000/svg" viewBox="0 0 600 600"><defs><style>.cls-1{fill:#ff6d00;}.cls-2{fill:#c65000;opacity:0.52;}.cls-3{fill:#0d8700;}.cls-4{fill:#0b5900;}.cls-5{fill:#10aac1;}.cls-6{fill:#f4d34a;}.cls-7{fill:#f4a82d;}.cls-8{fill:#fff;}.cls-9{fill:#fafeff;}.cls-10{fill:#c9c9c9;}.cls-11{fill:#979797;}.cls-12{fill:#052c44;}.cls-13{fill:#073b5b;}</style></defs><g id="Capa_2" data-name="Capa 2"><g id="Capa_1-2" data-name="Capa 1"><rect class="cls-1" x="0.17" width="599.66" height="600"/><polygon class="cls-2" points="0.17 0 0.17 600 599.83 600 0.17 0"/><polyline class="cls-2" points="0 599.83 600 0.17 0 0.17"/><path class="cls-3" d="M404.74,186.56l27.36,27.23L432,132.84a7,7,0,0,0-7-6.92l-249.8.5a6.94,6.94,0,0,0-6.92,7l.62,341.71a7,7,0,0,0,6.94,6.93l52.66-.11-33.84-33.71Z"/><path class="cls-4" d="M432.62,474.56l-.52-272-27.36-27.23-210,272.9,33.84,33.71,197.15-.39A7,7,0,0,0,432.62,474.56Z"/><polygon class="cls-5" points="371.13 169.44 229.31 169.73 229.22 126.19 371.06 125.92 371.13 169.44"/><path class="cls-6" d="M202.69,169.73a8.52,8.52,0,0,0-8.52,8.51v8.32h105.6V169.73Z"/><path class="cls-7" d="M404.74,178.24c0-4.7-3.38-8.51-8.09-8.51H299.77v16.83h105Z"/><circle class="cls-8" cx="380.55" cy="178.14" r="4.04"/><circle class="cls-8" cx="368.44" cy="178.14" r="4.04"/><path class="cls-8" d="M396.7,178.14a4,4,0,1,1-4-4A4,4,0,0,1,396.7,178.14Z"/><path class="cls-9" d="M203.09,425.11V408.9h96.77V327.84H203.09V311.62h96.77V295.41H203.09V279.2h96.77V263H203.09V206.38h96.77V186.56H194.17l.52,261.63,105.17-.2V425.11Zm0-48.64V344.05h63.48v48.64H203.09Z"/><path class="cls-10" d="M405,300l-.11-56.74-.13-56.74H299.86v19.82H396.7V263H299.86V279.2H396.7v16.21H299.86v16.21H396.7v16.22H299.86V408.9H396.7v16.21H299.86V448l105.42-.21Zm-8.28,60.22v32.43h-64V344.05h64Z"/><rect class="cls-10" x="203.09" y="206.38" width="96.76" height="56.61"/><rect class="cls-11" x="299.86" y="206.38" width="96.84" height="56.61"/><rect class="cls-10" x="203.09" y="279.2" width="96.76" height="16.21"/><rect class="cls-11" x="299.86" y="279.2" width="96.84" height="16.21"/><rect class="cls-11" x="299.86" y="311.62" width="96.84" height="16.21"/><rect class="cls-10" x="203.09" y="311.62" width="96.76" height="16.21"/><polygon class="cls-10" points="266.57 376.47 266.57 360.26 266.57 344.05 203.09 344.05 203.09 360.26 203.09 376.47 203.09 392.69 266.57 392.69 266.57 376.47"/><polygon class="cls-11" points="332.71 360.26 332.71 376.47 332.71 392.69 396.7 392.69 396.7 376.47 396.7 360.26 396.7 344.05 332.71 344.05 332.71 360.26"/><rect class="cls-10" x="203.09" y="408.9" width="96.76" height="16.21"/><rect class="cls-11" x="299.86" y="408.9" width="96.84" height="16.21"/><polygon class="cls-6" points="298.54 483.72 298.64 514.08 287.7 494.42 287.59 447.98 300.36 447.97 300.4 483.69 298.54 483.72"/><polygon class="cls-7" points="302.4 514.03 302.33 483.71 300.4 483.69 300.36 447.97 313.08 447.93 313.2 494.35 302.4 514.03"/><path d="M302.35,488.78l.06,25.25-1.94,1.9-1.83-1.85,0-25.28a5.78,5.78,0,1,1,3.75,0Z"/><polygon class="cls-12" points="299.9 221.95 299.66 102.39 325.04 102.35 325.07 112.52 325.12 112.52 325.13 121.33 325.33 221.88 299.9 221.95"/><polygon class="cls-13" points="274.44 221.99 274.23 121.41 274.21 112.61 274.22 102.48 299.66 102.39 299.9 221.95 274.44 221.99"/><polygon class="cls-13" points="279.42 448.02 279.01 244.06 299.96 244 300.36 447.97 279.42 448.02"/><polygon class="cls-12" points="320.66 447.93 300.36 447.97 299.96 244 320.27 243.98 320.66 447.93"/><path class="cls-8" d="M306.52,102.39l.19,101.21a6.85,6.85,0,0,1-13.7,0l-.2-101.24-18.59.08a18.26,18.26,0,0,1,18.25-18.37l7.13,0h7.09A18.31,18.31,0,0,1,325,102.35Z"/><polygon class="cls-10" points="320.5 365.81 300.18 365.86 300.17 357.03 320.5 357 320.5 365.81"/><polygon class="cls-8" points="279.24 365.9 279.22 357.07 300.17 357.03 300.18 365.86 279.24 365.9"/><polygon class="cls-10" points="325.38 243.97 299.96 244 299.9 221.95 325.33 221.88 325.38 243.97"/><polygon class="cls-8" points="274.46 244.05 274.41 221.99 299.9 221.95 299.96 244 274.46 244.05"/></g></g></svg>