<svg xmlns="http://www.w3.org/2000/svg" viewBox="0 0 600 600"><defs><style>.cls-1{fill:#20af48;}.cls-2{fill:#126d27;opacity:0.52;}.cls-3{fill:#fff;}.cls-4{fill:#40bbcd;}.cls-5{fill:#10aac1;}.cls-6{fill:#073b5b;}.cls-7{fill:#8dd6e1;}.cls-8{fill:#c6ebf0;}.cls-9{fill:#78bac1;}.cls-10{fill:#f4a82d;}.cls-11{fill:#f4d34a;}</style></defs><g id="Capa_2" data-name="Capa 2"><g id="Capa_1-2" data-name="Capa 1"><rect class="cls-1" width="600" height="600"/><polygon class="cls-2" points="0 0 0 600 600 600 0 0"/><polyline class="cls-2" points="0 600 600 0 0 0"/><path class="cls-3" d="M115,380.76H485.15a0,0,0,0,1,0,0v56.53a2.5,2.5,0,0,1-2.5,2.5H117.49a2.5,2.5,0,0,1-2.5-2.5V380.76A0,0,0,0,1,115,380.76Z"/><path d="M117.49,157.52H482.65a2.5,2.5,0,0,1,2.5,2.5V399.85a0,0,0,0,1,0,0H115a0,0,0,0,1,0,0V160A2.5,2.5,0,0,1,117.49,157.52Z"/><path d="M220.39,495.72H379.75a2.88,2.88,0,0,1,2.88,2.88v14.88a0,0,0,0,1,0,0H217.52a0,0,0,0,1,0,0V498.59A2.87,2.87,0,0,1,220.39,495.72Z"/><polygon class="cls-4" points="127.64 178.82 127.64 378.55 472.5 178.82 127.64 178.82"/><polygon class="cls-5" points="127.64 378.55 472.5 378.55 472.5 178.82 127.64 378.55"/><polygon points="334.02 495.72 334.02 439.79 266.12 439.79 322.04 495.72 334.02 495.72"/><polygon class="cls-6" points="266.12 439.79 266.12 495.72 322.04 495.72 266.12 439.79"/><polygon class="cls-7" points="300.07 211.59 300.07 211.44 290.75 211.44 290.75 230.89 295.41 235.55 295.41 211.59 300.07 211.59"/><polygon class="cls-8" points="210.64 337.06 210.64 328.76 325.62 328.76 317.33 320.46 210.64 320.46 210.64 312.17 309.03 312.17 300.74 303.87 210.86 303.87 210.86 273.66 295.41 273.66 295.41 235.55 290.75 230.89 290.75 265.37 210.86 265.37 210.86 157.52 278.43 157.52 278.43 143.76 200.21 143.76 200.21 362.12 358.99 362.12 333.92 337.06 210.64 337.06"/><path class="cls-7" d="M321.71,157.52h70.68v8.29H321.71v8.3h70.68v8.29H321.71v8.3h70.68V199H332.87a8,8,0,0,1,0,8.29h59.52v8.3H304.73v8.3h87.66v8.29H304.73v8.3h87.66v8.29H304.73v8.3h87.66v8.3H304.73v8.29h87.66v30.21H300.73l8.3,8.3h83.36v8.29H317.33l8.29,8.3h66.77v8.3H333.92L359,362.12h41.83V143.76H321.71Z"/><path class="cls-5" d="M278.43,125.12H207.64a7.43,7.43,0,0,0-7.43,7.43v11.21h78.22Z"/><path class="cls-5" d="M393.39,125.12H321.71v18.64h79.11V132.55A7.43,7.43,0,0,0,393.39,125.12Z"/><path class="cls-9" d="M274.41,211.44a8.23,8.23,0,0,1-4.39-1.28l20.73,20.73V211.44Z"/><path class="cls-7" d="M266.12,203.14a8.29,8.29,0,0,1,8.29-8.29h4V157.52H210.86V265.37h79.89V230.89L270,210.16A8.27,8.27,0,0,1,266.12,203.14Z"/><polygon class="cls-9" points="310.14 287.89 304.73 298.54 295.41 298.54 300.74 303.87 392.39 303.87 392.39 273.66 304.73 273.66 304.73 277.24 310.14 287.89"/><polygon class="cls-7" points="290 287.89 295.41 277.24 295.41 273.66 210.86 273.66 210.86 303.87 300.74 303.87 295.41 298.54 290 287.89"/><rect class="cls-9" x="321.71" y="157.52" width="70.68" height="8.3"/><rect class="cls-9" x="321.71" y="174.11" width="70.68" height="8.3"/><path class="cls-9" d="M325.73,194.85a8.26,8.26,0,0,1,7.14,4.15h59.52v-8.3H321.71v4.15Z"/><path class="cls-9" d="M325.73,211.44H300.07v.15h4.66v4h87.66v-8.3H332.87A8.26,8.26,0,0,1,325.73,211.44Z"/><rect class="cls-9" x="304.73" y="223.89" width="87.66" height="8.3"/><rect class="cls-9" x="304.73" y="240.48" width="87.66" height="8.3"/><rect class="cls-9" x="304.73" y="257.07" width="87.66" height="8.3"/><polygon class="cls-9" points="392.39 320.46 392.39 312.17 309.03 312.17 317.33 320.46 392.39 320.46"/><polygon class="cls-7" points="210.64 320.46 317.33 320.46 309.03 312.17 210.64 312.17 210.64 320.46"/><polygon class="cls-9" points="392.39 337.06 392.39 328.76 325.62 328.76 333.92 337.06 392.39 337.06"/><polygon class="cls-7" points="210.64 337.06 333.92 337.06 325.62 328.76 210.64 328.76 210.64 337.06"/><path class="cls-10" d="M332.87,199a8.26,8.26,0,0,0-7.14-4.15H274.41a8.3,8.3,0,0,0,0,16.59h51.32A8.24,8.24,0,0,0,332.87,199Z"/><path class="cls-10" d="M300.07,165.81v29h21.64V88.17a21.64,21.64,0,0,0-21.64-21.64v99.28Z"/><path class="cls-11" d="M278.43,157.52v37.33h21.64V66.53a21.64,21.64,0,0,0-21.64,21.64v69.35Z"/><polygon class="cls-3" points="304.73 277.24 304.73 273.66 304.73 265.37 304.73 257.07 304.73 248.78 304.73 240.48 304.73 232.18 304.73 223.89 304.73 215.59 304.73 211.59 300.07 211.59 295.41 211.59 295.41 235.55 295.41 273.66 295.41 277.24 290 287.89 295.41 298.54 304.73 298.54 310.14 287.89 304.73 277.24"/></g></g></svg>