<svg xmlns="http://www.w3.org/2000/svg" viewBox="0 0 600 600"><defs><style>.cls-1{fill:#ffb000;}.cls-2{fill:#bc7d00;opacity:0.52;}.cls-3{fill:#fff;}.cls-4{fill:#40bbcd;}.cls-5{fill:#10aac1;}.cls-6{fill:#073b5b;}.cls-7{fill:#0c8091;}.cls-8{fill:#c6ebf0;}.cls-9{fill:#8dd6e1;}.cls-10{fill:#ef433f;}.cls-11{fill:#b3322f;}.cls-12{fill:#a8053d;}.cls-13{fill:#7e032e;}.cls-14{fill:#052c44;}.cls-15{fill:#f4d34a;}.cls-16{fill:#f4a82d;}</style></defs><g id="Capa_2" data-name="Capa 2"><g id="Capa_1-2" data-name="Capa 1"><rect class="cls-1" width="600" height="600"/><polygon class="cls-2" points="0 0 0 600 600 600 0 0"/><polyline class="cls-2" points="0 600 600 0 0 0"/><path class="cls-3" d="M114.92,352.27H485.08a0,0,0,0,1,0,0V408.8a2.5,2.5,0,0,1-2.5,2.5H117.42a2.5,2.5,0,0,1-2.5-2.5V352.27A0,0,0,0,1,114.92,352.27Z"/><path d="M117.42,129H482.58a2.5,2.5,0,0,1,2.5,2.5V371.35a0,0,0,0,1,0,0H114.92a0,0,0,0,1,0,0V131.52A2.5,2.5,0,0,1,117.42,129Z"/><path d="M220.32,467.22H379.68a2.88,2.88,0,0,1,2.88,2.88V485a0,0,0,0,1,0,0H217.45a0,0,0,0,1,0,0V470.1A2.88,2.88,0,0,1,220.32,467.22Z"/><polygon class="cls-4" points="127.57 150.33 127.57 350.05 472.43 150.33 127.57 150.33"/><polygon class="cls-5" points="127.57 350.05 472.43 350.05 472.43 150.33 127.57 350.05"/><polygon points="333.95 467.22 333.95 411.3 266.05 411.3 321.97 467.22 333.95 467.22"/><polygon class="cls-6" points="266.05 411.3 266.05 467.22 321.97 467.22 266.05 411.3"/><rect class="cls-3" x="139.54" y="161.3" width="320.92" height="188.68"/><rect class="cls-7" x="139.54" y="161.3" width="320.92" height="17.44"/><circle class="cls-3" cx="451.79" cy="169.19" r="4.22"/><circle class="cls-3" cx="439.14" cy="169.19" r="4.22"/><circle class="cls-3" cx="426.49" cy="169.19" r="4.22"/><rect class="cls-8" x="139.54" y="178.73" width="320.92" height="37.28"/><rect class="cls-9" x="391.69" y="178.73" width="68.77" height="171.24"/><rect class="cls-9" x="139.54" y="178.73" width="30.42" height="168.5"/><polygon class="cls-10" points="139.54 292.91 139.54 338.75 185.39 292.91 139.54 292.91"/><polygon class="cls-11" points="139.54 338.75 185.39 338.75 185.39 292.91 139.54 338.75"/><polygon class="cls-12" points="414.61 292.91 414.61 338.75 460.46 292.91 414.61 292.91"/><polygon class="cls-13" points="414.61 338.75 460.46 338.75 460.46 292.91 414.61 338.75"/><polygon class="cls-6" points="345.85 292.91 345.85 338.75 391.69 292.91 345.85 292.91"/><polygon class="cls-14" points="345.85 338.75 391.69 338.75 391.69 292.91 345.85 338.75"/><rect class="cls-7" x="182.61" y="191.38" width="12.65" height="12.65"/><rect class="cls-7" x="201.58" y="191.38" width="12.65" height="12.65"/><rect class="cls-3" x="403.49" y="191.38" width="45.16" height="6.32"/><rect class="cls-3" x="403.49" y="204.03" width="45.16" height="6.32"/><rect class="cls-3" x="403.49" y="216.68" width="45.16" height="6.32"/><rect class="cls-8" x="208.31" y="235.1" width="137.54" height="103.65"/><polygon class="cls-15" points="208.31 292.91 208.31 338.75 254.16 292.91 208.31 292.91"/><polygon class="cls-16" points="208.31 338.75 254.16 338.75 254.16 292.91 208.31 338.75"/><polygon class="cls-5" points="277.08 292.91 277.08 338.75 322.92 292.91 277.08 292.91"/><polygon class="cls-7" points="277.08 338.75 322.92 338.75 322.92 292.91 277.08 338.75"/><path d="M406.57,379.11l11.1,23a5.81,5.81,0,0,0,7.77,2.72l4.5-2.17a5.83,5.83,0,0,0,2.71-7.78l-11.09-23-8.67,1.18Z"/><path class="cls-3" d="M387.68,315.64a2.42,2.42,0,0,0-4,1.95l3.82,59.55a2.44,2.44,0,0,0,3.46,2,2.48,2.48,0,0,0,.64-.45l15.89-15.21a2.6,2.6,0,0,1,.62-.44,2.35,2.35,0,0,1,.73-.21l21.81-3a2.54,2.54,0,0,0,.74-.22,2.44,2.44,0,0,0,.56-4Z"/><path d="M439.06,347.8l-44.22-40.06A13.08,13.08,0,0,0,373,318.28l3.82,59.54a13.08,13.08,0,0,0,18.72,10.95,13.53,13.53,0,0,0,3.38-2.34l7.64-7.32,6.32-6.05,8.67-1.18L432,370.45a12.77,12.77,0,0,0,3.93-1.18,13.09,13.09,0,0,0,3.09-21.47Zm-7.71,11.88a2.54,2.54,0,0,1-.74.22l-21.81,3a2.35,2.35,0,0,0-.73.21,2.6,2.6,0,0,0-.62.44l-15.89,15.21a2.48,2.48,0,0,1-.64.45,2.44,2.44,0,0,1-3.46-2l-3.82-59.55a2.42,2.42,0,0,1,4-1.95l44.23,40.06A2.44,2.44,0,0,1,431.35,359.68Z"/></g></g></svg>